<svg width="14" height="13" viewBox="0 0 14 13" fill="none" xmlns="http://www.w3.org/2000/svg">
<path d="M5.24784 1.73333H3.93101C3.11158 1.73333 2.70155 1.73333 2.38857 1.89319C2.11326 2.0338 1.88959 2.25801 1.74932 2.53398C1.58984 2.84772 1.58984 3.25873 1.58984 4.08014V9.65348C1.58984 10.4749 1.58984 10.8854 1.74932 11.1991C1.88959 11.4751 2.11326 11.6997 2.38857 11.8403C2.70125 12 3.11077 12 3.92861 12H9.49307C10.3109 12 10.7198 12 11.0325 11.8403C11.3078 11.6997 11.5322 11.4749 11.6725 11.1989C11.8318 10.8855 11.8318 10.4754 11.8318 9.6556V8.33333M12.5634 4.66667V1M12.5634 1H8.90555M12.5634 1L7.44241 6.13333" stroke="#8C8C8C" stroke-width="1.46667" stroke-linecap="round" stroke-linejoin="round"/>
</svg>
