<svg width="61" height="55" viewBox="0 0 61 55" fill="none" xmlns="http://www.w3.org/2000/svg">
<circle cx="37.2778" cy="23.7222" r="23.7222" fill="#5896E2" fill-opacity="0.3"/>
<circle cx="25.9815" cy="28.9938" r="23.7222" fill="#5896E2"/>
<path fill-rule="evenodd" clip-rule="evenodd" d="M25.4697 13.0006C25.7482 12.9946 25.9117 13.0309 26.166 13.152C26.3477 13.2429 26.6564 13.4669 26.8562 13.6547C27.05 13.8424 27.4617 14.3208 27.7705 14.7205C28.0793 15.1201 28.4365 15.5501 28.5637 15.6773C28.7877 15.8953 28.818 15.9074 29.1025 15.8892C29.2902 15.8711 29.8049 15.7015 30.4648 15.435C31.0461 15.1989 31.6758 14.9748 31.8574 14.9324C32.0391 14.89 32.3539 14.8658 32.5537 14.884C32.7535 14.9021 33.026 14.9688 33.1592 15.0414C33.2924 15.108 33.4861 15.2534 33.5951 15.3684C33.698 15.4774 33.8373 15.6773 33.91 15.8105C33.9766 15.9437 34.0734 16.2162 34.1279 16.4161C34.1764 16.6159 34.2611 17.1064 34.3096 17.5061C34.3641 17.9058 34.4307 18.3963 34.467 18.5961C34.5033 18.796 34.5699 19.0322 34.6184 19.123C34.6668 19.2199 34.7939 19.3349 34.8969 19.3894C35.0059 19.4439 35.6416 19.5651 36.3076 19.662C36.9736 19.7588 37.6578 19.88 37.8213 19.9345C37.9848 19.995 38.1906 20.0798 38.2754 20.1282C38.3602 20.1827 38.5176 20.3039 38.6266 20.4068C38.7416 20.5098 38.8869 20.7035 38.9535 20.8368C39.0262 20.97 39.0928 21.2425 39.1109 21.4423C39.1291 21.6422 39.1049 21.9571 39.0625 22.1388C39.0201 22.3204 38.7961 22.9502 38.56 23.5316C38.2936 24.1917 38.124 24.7064 38.1059 24.8941C38.0877 25.1787 38.0998 25.209 38.3178 25.4331C38.4449 25.5603 38.8748 25.9175 39.2744 26.2264C39.674 26.5352 40.1523 26.947 40.3461 27.1408C40.5338 27.3467 40.7518 27.6495 40.8426 27.8433C40.9395 28.0552 41 28.3035 41 28.467C41 28.6184 40.9395 28.897 40.8668 29.0847C40.776 29.3209 40.6125 29.5631 40.3643 29.8235C40.1645 30.0354 39.674 30.4594 39.2744 30.7682C38.8748 31.077 38.4449 31.4343 38.3178 31.5615C38.0998 31.7856 38.0877 31.8158 38.1059 32.1005C38.124 32.2882 38.2936 32.8029 38.56 33.463C38.7961 34.0444 39.0262 34.6984 39.0625 34.9164C39.1049 35.1344 39.1291 35.4493 39.1109 35.6128C39.0928 35.7763 39.0201 36.0246 38.9535 36.1578C38.8869 36.291 38.7416 36.4848 38.6266 36.5938C38.5176 36.6968 38.3178 36.8361 38.1846 36.9087C38.0514 36.9753 37.7789 37.0722 37.5791 37.1267C37.3793 37.1752 36.792 37.2721 36.2773 37.3387C35.7627 37.4113 35.2359 37.4901 35.1088 37.5204C34.9877 37.5567 34.8182 37.6475 34.7334 37.7323C34.6486 37.8171 34.5578 37.9866 34.5215 38.1078C34.4912 38.2349 34.4125 38.7618 34.3398 39.2765C34.2732 39.7913 34.1764 40.3787 34.1279 40.5785C34.0734 40.7783 33.9766 41.0509 33.91 41.1841C33.8373 41.3173 33.698 41.5171 33.5951 41.6261C33.4861 41.7412 33.2924 41.8865 33.1592 41.9532C33.026 42.0258 32.7535 42.0924 32.5537 42.1106C32.3539 42.1288 32.0391 42.1046 31.8574 42.0622C31.6758 42.0198 31.0461 41.7957 30.4648 41.5595C29.8049 41.2931 29.2902 41.1235 29.1025 41.1054C28.818 41.0872 28.7877 41.0993 28.5637 41.3173C28.4365 41.4445 28.0793 41.8744 27.7705 42.2741C27.4617 42.6738 27.05 43.1522 26.8562 43.3399C26.6564 43.5277 26.3477 43.7517 26.166 43.8426C25.9299 43.9576 25.7361 44 25.5 44C25.2639 44 25.0701 43.9576 24.834 43.8426C24.6523 43.7517 24.3436 43.5277 24.1438 43.3399C23.95 43.1522 23.5383 42.6738 23.2295 42.2741C22.9207 41.8744 22.5635 41.4445 22.4363 41.3173C22.2123 41.0993 22.182 41.0872 21.8975 41.1054C21.7098 41.1235 21.177 41.2991 20.5049 41.5716C19.9055 41.8078 19.2516 42.0379 19.0518 42.0743C18.852 42.1106 18.5553 42.1288 18.3857 42.1106C18.2223 42.0924 17.974 42.0198 17.8408 41.9532C17.7076 41.8865 17.5139 41.7412 17.4049 41.6261C17.302 41.5171 17.1627 41.3173 17.09 41.1841C17.0234 41.0509 16.9266 40.7783 16.8721 40.5785C16.8236 40.3787 16.7389 39.8881 16.6904 39.4885C16.6359 39.0888 16.5693 38.5983 16.533 38.3984C16.4967 38.1986 16.4301 37.9624 16.3816 37.8655C16.3332 37.7747 16.2061 37.6596 16.1031 37.6051C15.9941 37.5506 15.3584 37.4295 14.6924 37.3326C14.0264 37.2357 13.3482 37.1146 13.1787 37.0601C13.0152 36.9996 12.8094 36.9148 12.7246 36.8663C12.6398 36.8118 12.4824 36.6907 12.3734 36.5878C12.2584 36.4848 12.1131 36.291 12.0465 36.1578C11.9738 36.0246 11.9072 35.7521 11.8891 35.5522C11.8709 35.3524 11.8951 35.0375 11.9375 34.8558C11.9799 34.6742 12.2039 34.0444 12.44 33.463C12.7064 32.8029 12.876 32.2882 12.8941 32.1005C12.9123 31.8158 12.9002 31.7856 12.6822 31.5615C12.5551 31.4343 12.1252 31.077 11.7256 30.7682C11.326 30.4594 10.8477 30.0476 10.6539 29.8538C10.4662 29.6479 10.2482 29.3451 10.1574 29.1453C10.0605 28.9394 10 28.6911 10 28.5276C10 28.3762 10.0605 28.0976 10.1332 27.9038C10.224 27.6737 10.3875 27.4315 10.6357 27.1711C10.8355 26.9591 11.326 26.5352 11.7256 26.2264C12.1252 25.9175 12.5551 25.5603 12.6822 25.4331C12.9002 25.209 12.9123 25.1787 12.8941 24.8941C12.876 24.7064 12.7064 24.1917 12.44 23.5316C12.2039 22.9502 11.9738 22.2962 11.9375 22.0782C11.8951 21.8602 11.8709 21.5453 11.8891 21.3818C11.9072 21.2122 11.9799 20.97 12.0465 20.8368C12.1131 20.7035 12.2584 20.5098 12.3734 20.4008C12.4824 20.2978 12.6822 20.1585 12.8154 20.0859C12.9486 20.0192 13.2211 19.9224 13.4209 19.8679C13.6207 19.8194 14.1111 19.7346 14.5107 19.6862C14.9104 19.6317 15.4008 19.5651 15.6006 19.5287C15.8004 19.4924 16.0365 19.4258 16.1334 19.3773C16.2242 19.3289 16.3393 19.2017 16.3937 19.0927C16.4482 18.9898 16.5693 18.3539 16.6662 17.6878C16.7631 17.0216 16.8842 16.3374 16.9387 16.1738C16.9992 16.0043 17.084 15.8044 17.1324 15.7197C17.1869 15.6349 17.308 15.4774 17.4109 15.3684C17.5139 15.2534 17.7076 15.108 17.8408 15.0414C17.974 14.9688 18.2465 14.9021 18.4463 14.884C18.6461 14.8658 18.9609 14.89 19.1426 14.9324C19.3242 14.9748 19.9539 15.1989 20.5352 15.435C21.1951 15.7015 21.7098 15.8711 21.8975 15.8892C22.182 15.9074 22.2123 15.8953 22.4363 15.6773C22.5635 15.5501 22.9207 15.1201 23.2295 14.7205C23.5383 14.3208 23.9379 13.8484 24.1195 13.6789C24.2951 13.5033 24.5918 13.2792 24.7734 13.1823C25.0277 13.043 25.1912 13.0006 25.4697 13.0006ZM24.8279 14.8779C24.6766 15.0596 24.3799 15.435 24.168 15.7197C23.9561 16.0043 23.6291 16.3858 23.4414 16.5735C23.2355 16.7915 22.9691 16.9793 22.7451 17.0822C22.4121 17.2397 22.3334 17.2457 21.8369 17.2215C21.3283 17.1973 21.2133 17.1609 20.1113 16.7249C19.3242 16.41 18.8398 16.2506 18.6582 16.2465C18.4039 16.2344 18.3797 16.2465 18.2828 16.4464C18.2223 16.5675 18.1072 17.1367 18.0225 17.7483C17.9377 18.3479 17.8348 18.9595 17.8045 19.1109C17.7682 19.2623 17.6773 19.5166 17.5986 19.6862C17.5199 19.8497 17.3625 20.0798 17.2535 20.1949C17.1445 20.3039 16.9447 20.4613 16.8115 20.54C16.6783 20.6127 16.4059 20.7217 16.2061 20.7762C16.0062 20.8247 15.4189 20.9276 14.9043 20.9942C14.3896 21.0608 13.8266 21.1577 13.6631 21.2001C13.4996 21.2486 13.318 21.3273 13.2695 21.3878C13.2029 21.4605 13.1908 21.5453 13.2271 21.7391C13.2514 21.8723 13.4512 22.4355 13.6691 22.9866C13.8871 23.5376 14.093 24.0524 14.1293 24.1372C14.1656 24.2219 14.208 24.5368 14.2262 24.8336C14.2564 25.3362 14.2443 25.4089 14.093 25.7419C13.984 25.966 13.7902 26.2324 13.5783 26.4383C13.3906 26.6261 12.9547 26.9955 12.6035 27.2559C12.2523 27.5223 11.8648 27.8312 11.7316 27.9523C11.6045 28.0673 11.4592 28.2369 11.4168 28.3277C11.3441 28.4731 11.3441 28.5215 11.4168 28.6608C11.4592 28.7577 11.6045 28.9272 11.7316 29.0423C11.8648 29.1634 12.2523 29.4723 12.6035 29.7387C12.9547 29.9991 13.3906 30.3685 13.5783 30.5562C13.7963 30.7621 13.984 31.0286 14.0869 31.2527C14.2443 31.5857 14.2504 31.6644 14.2262 32.161C14.202 32.6697 14.1656 32.7848 13.7297 33.8869C13.4148 34.6742 13.2554 35.1586 13.2514 35.3403C13.2393 35.5946 13.2514 35.6188 13.4512 35.7157C13.5723 35.7763 14.1414 35.8914 14.7529 35.9761C15.3523 36.0609 15.9639 36.1639 16.1152 36.1941C16.2666 36.2305 16.527 36.3213 16.6904 36.4C16.86 36.4788 17.084 36.6362 17.199 36.7452C17.308 36.8542 17.4654 37.0541 17.5441 37.1873C17.6168 37.3205 17.7258 37.593 17.7803 37.7929C17.8287 37.9927 17.9316 38.5801 17.9982 39.0948C18.0648 39.6096 18.1557 40.1667 18.2041 40.3363C18.2525 40.4998 18.3252 40.6754 18.3676 40.7178C18.4221 40.7723 18.5311 40.7844 18.7188 40.7602C18.8701 40.742 19.4271 40.5482 19.96 40.3363C20.4928 40.1183 21.0801 39.9003 21.2617 39.8458C21.4434 39.7973 21.7885 39.7549 22.0186 39.7549C22.3455 39.7549 22.515 39.7973 22.7754 39.9184C22.957 40.0032 23.2598 40.2273 23.4414 40.4211C23.6291 40.6088 23.9984 41.0448 24.2588 41.396C24.5252 41.7473 24.834 42.1348 24.9551 42.2681C25.0701 42.3952 25.2396 42.5406 25.3365 42.583C25.4758 42.6556 25.5242 42.6556 25.6695 42.583C25.7604 42.5406 25.9299 42.3952 26.0449 42.2681C26.166 42.1348 26.4748 41.7473 26.7412 41.396C27.0016 41.0448 27.3709 40.6088 27.5586 40.4211C27.7402 40.2273 28.0369 40.0032 28.2246 39.9184C28.4789 39.7973 28.6605 39.761 28.9814 39.7549C29.2176 39.7489 29.5264 39.7791 29.6777 39.8215C29.8291 39.8579 30.4285 40.0819 31.0098 40.3181C31.7121 40.6027 32.1602 40.7481 32.3418 40.7541C32.5961 40.7602 32.6203 40.7481 32.7172 40.5482C32.7777 40.4271 32.8928 39.8639 32.9775 39.2462C33.0623 38.6467 33.1713 37.9927 33.2258 37.7929C33.2742 37.593 33.3771 37.3205 33.4559 37.1873C33.5346 37.0541 33.6799 36.8663 33.7707 36.7694C33.8676 36.6786 34.0553 36.5333 34.1885 36.4545C34.3217 36.3819 34.5941 36.2729 34.7939 36.2184C34.9937 36.1699 35.5811 36.067 36.0957 36.0004C36.6104 35.9337 37.1734 35.8369 37.3369 35.7945C37.5064 35.746 37.682 35.6673 37.7305 35.6067C37.7971 35.5341 37.8092 35.4493 37.7789 35.2737C37.7486 35.1465 37.5186 34.5106 37.2643 33.8687C36.8344 32.7848 36.798 32.6697 36.7738 32.161C36.7496 31.6644 36.7557 31.5857 36.9131 31.2527C37.016 31.0286 37.2037 30.7621 37.4217 30.5562C37.6094 30.3685 38.0453 29.9991 38.3965 29.7387C38.7477 29.4723 39.1352 29.1634 39.2684 29.0423C39.3955 28.9272 39.5408 28.7577 39.5832 28.6608C39.6559 28.5215 39.6559 28.4731 39.5832 28.3277C39.5408 28.2369 39.3955 28.0673 39.2684 27.9523C39.1352 27.8312 38.7477 27.5223 38.3965 27.2559C38.0453 26.9955 37.6094 26.6261 37.4217 26.4383C37.2037 26.2324 37.016 25.966 36.9131 25.7419C36.7557 25.4089 36.7496 25.3301 36.7738 24.8336C36.798 24.3249 36.8344 24.2098 37.2703 23.1077C37.5852 22.3204 37.7446 21.836 37.7486 21.6543C37.7607 21.4 37.7486 21.3757 37.5488 21.2788C37.4277 21.2183 36.8586 21.1032 36.2471 21.0184C35.6477 20.9337 35.0361 20.8307 34.8848 20.8004C34.7334 20.7641 34.4791 20.6733 34.3096 20.5945C34.1461 20.5158 33.916 20.3584 33.801 20.2494C33.692 20.1404 33.5346 19.9405 33.4559 19.8073C33.3832 19.6741 33.2742 19.4016 33.2197 19.2017C33.1713 19.0019 33.0684 18.4145 33.0018 17.8997C32.9352 17.385 32.8383 16.8218 32.7959 16.6583C32.7475 16.4887 32.6687 16.3131 32.6082 16.2647C32.5355 16.1981 32.4508 16.186 32.257 16.2223C32.1238 16.2465 31.4881 16.4766 30.8584 16.731C29.7867 17.1609 29.6717 17.1973 29.1631 17.2215C28.6666 17.2457 28.5879 17.2397 28.2549 17.0822C28.0309 16.9793 27.7645 16.7915 27.5586 16.5735C27.3709 16.3858 27.0016 15.9498 26.7412 15.5985C26.4748 15.2473 26.166 14.8597 26.0449 14.7265C25.9299 14.5994 25.7604 14.454 25.6695 14.4116C25.5727 14.3632 25.4939 14.3268 25.4879 14.3268C25.4758 14.3268 25.391 14.3753 25.2881 14.4358C25.1852 14.4964 24.9793 14.6962 24.8279 14.8779ZM25.5 18.4448C25.7301 18.4448 25.8391 18.475 25.948 18.578C26.0268 18.6567 26.8078 20.0132 27.6797 21.5937C28.5576 23.1743 29.2721 24.4763 29.2781 24.4823C29.2781 24.4884 30.6223 24.6398 35.2178 25.1545L35.4176 25.3725C35.5508 25.5239 35.6113 25.6511 35.6113 25.7843C35.6113 25.8933 35.5689 26.0508 35.5145 26.1355C35.46 26.2203 34.4125 27.2922 30.9553 30.7682L31.591 33.9172C31.9361 35.6491 32.2207 37.1631 32.2207 37.2781C32.2268 37.3992 32.1723 37.5627 32.0996 37.6536C32.033 37.7505 31.8756 37.8534 31.7545 37.8898C31.6031 37.9321 31.4699 37.9321 31.373 37.8958C31.2883 37.8655 29.932 37.1267 25.5 34.6742L22.6422 36.2608C21.068 37.1267 19.7117 37.8655 19.627 37.8958C19.5301 37.9321 19.3969 37.9321 19.2516 37.8898C19.1244 37.8534 18.967 37.7505 18.9004 37.6536C18.8277 37.5627 18.7732 37.4053 18.7793 37.3084C18.7793 37.2115 19.0639 35.6976 20.0508 30.7682L17.7863 28.4973C16.4604 27.1771 15.4855 26.1477 15.4492 26.0447C15.4129 25.9418 15.3947 25.7843 15.4129 25.6814C15.4311 25.5784 15.5219 25.421 15.7822 25.1606L18.749 24.8275C20.3777 24.6398 21.7219 24.4884 21.7219 24.4823C21.7279 24.4763 22.4484 23.1743 23.3264 21.5937C24.2043 20.0132 24.9793 18.6567 25.058 18.578C25.1609 18.475 25.2639 18.4448 25.5 18.4448ZM22.5029 25.6935C22.4303 25.7419 21.5281 25.8691 20.2324 26.0144C19.0518 26.1477 17.9619 26.2688 17.8105 26.2869L17.5381 26.3233C20.8137 29.5994 21.3889 30.2171 21.4191 30.3443C21.4494 30.4715 21.3102 31.289 20.9227 33.2026C20.626 34.6742 20.3959 35.8914 20.4141 35.9035C20.4322 35.9216 21.5221 35.3282 22.8359 34.5954C24.9672 33.4024 25.2578 33.2571 25.5 33.2571C25.7422 33.2571 26.0328 33.4024 28.1641 34.5954C29.4779 35.3282 30.5678 35.9216 30.5859 35.9035C30.6041 35.8914 30.374 34.6742 30.0773 33.2026C29.6898 31.289 29.5506 30.4715 29.5809 30.3443C29.6111 30.2171 30.1863 29.5994 31.5426 28.2429L33.4619 26.3233C33.0381 26.2688 31.9482 26.1477 30.7676 26.0144C29.4719 25.8691 28.5697 25.7419 28.4971 25.6935C28.4305 25.6511 27.7463 24.4642 26.9834 23.0592C26.2145 21.6543 25.5605 20.5037 25.5242 20.5037C25.4939 20.5037 24.8219 21.6543 24.0469 23.0592C23.2658 24.4642 22.5695 25.6511 22.5029 25.6935Z" fill="white" stroke="white" stroke-width="0.7"/>
</svg>
