<svg width="20" height="16" viewBox="0 0 20 16" fill="none" xmlns="http://www.w3.org/2000/svg">
<path d="M2.00046 2L8.10809 6.61227L8.11013 6.61396C8.78831 7.11128 9.12759 7.3601 9.49922 7.45621C9.82769 7.54117 10.173 7.54117 10.5014 7.45621C10.8734 7.36001 11.2137 7.11047 11.893 6.61227C11.893 6.61227 15.8105 3.60594 18.0005 2M1.00046 11.8002V4.2002C1.00046 3.08009 1.00046 2.51962 1.21844 2.0918C1.41019 1.71547 1.71593 1.40973 2.09225 1.21799C2.52008 1 3.08055 1 4.20065 1H15.8007C16.9208 1 17.48 1 17.9079 1.21799C18.2842 1.40973 18.5909 1.71547 18.7827 2.0918C19.0005 2.5192 19.0005 3.07899 19.0005 4.19691V11.8036C19.0005 12.9215 19.0005 13.4805 18.7827 13.9079C18.5909 14.2842 18.2842 14.5905 17.9079 14.7822C17.4804 15 16.9215 15 15.8035 15H4.19737C3.07945 15 2.51966 15 2.09225 14.7822C1.71593 14.5905 1.41019 14.2842 1.21844 13.9079C1.00046 13.4801 1.00046 12.9203 1.00046 11.8002Z" stroke="#5896E2" stroke-width="2" stroke-linecap="round" stroke-linejoin="round"/>
</svg>
