<svg width="61" height="55" viewBox="0 0 61 55" fill="none" xmlns="http://www.w3.org/2000/svg">
<circle cx="37.2778" cy="23.7222" r="23.7222" fill="#5896E2" fill-opacity="0.3"/>
<circle cx="25.9815" cy="28.9938" r="23.7222" fill="#5896E2"/>
<path fill-rule="evenodd" clip-rule="evenodd" d="M15.6428 41.1865C15.8244 41.2913 15.9319 41.2956 16.2938 41.2152C16.5347 41.1662 18.9741 40.6507 21.7126 40.0619C24.451 39.4731 26.7915 38.9511 26.9131 38.9056C27.0552 38.8502 27.1743 38.7454 27.244 38.612C27.3411 38.4439 27.3472 38.3317 27.2579 37.9908C27.194 37.7586 26.5768 35.8038 24.601 29.7231L28.7665 22.5084L30.7469 23.6518L31.0059 23.5844C31.2476 23.5214 31.2805 23.4898 31.7346 22.7032L32.9449 23.402L32.71 23.8088C32.4876 24.194 32.4798 24.2329 32.6283 24.7381L35.4229 26.3515L35.6811 26.2981C35.9103 26.2568 35.9636 26.2153 36.4869 25.4614L36.8955 25.6684C37.257 25.8554 37.3324 25.8772 37.7813 25.7603L38.9033 23.8549C39.8657 22.2262 40.0238 21.927 40.0337 21.7446C40.0343 21.6293 39.9979 21.4636 39.9428 21.3812C39.8846 21.3041 39.6889 21.1477 39.1552 20.8396L39.3477 20.43C39.4565 20.2035 39.5417 19.9417 39.5352 19.8512C39.5288 19.7607 39.4964 19.6262 39.4578 19.5533C39.409 19.46 39.0671 19.2265 38.2427 18.736C37.6108 18.3567 36.986 18.0033 36.8501 17.9465C36.7032 17.8834 36.4974 17.8586 36.3711 17.8869C36.1646 17.9268 36.1082 17.9738 35.5951 18.7481L34.4399 18.0811L34.6504 17.6529C34.8101 17.3256 34.8522 17.1764 34.8198 17.0419C34.7969 16.9419 34.7032 16.7865 34.6143 16.6991C34.5286 16.6062 34.0735 16.3145 32.7753 15.565L32.9099 15.3317C32.982 15.2069 33.0751 15.0075 33.1126 14.8918C33.1446 14.7728 33.1443 14.5701 33.0369 14.1971L30.2423 12.5837L29.693 12.7728L21.0905 27.6601L16.7477 28.5884C14.3625 29.0991 12.3257 29.565 12.2175 29.6255C12.0857 29.7013 12.0066 29.8002 11.9526 29.9571C11.8705 30.1629 12.0031 30.5938 13.5062 35.1938C14.4034 37.9467 15.2066 40.3922 15.2816 40.6308C15.4038 40.9907 15.4613 41.0817 15.6428 41.1865V41.1865ZM15.5763 36.9314C15.6116 36.9084 15.7748 36.829 15.9207 36.7541C16.0721 36.6824 16.4416 36.4618 16.7443 36.2677C17.0385 36.0759 17.4949 35.7173 17.752 35.4752C18.006 35.2385 18.3838 34.8129 18.5945 34.5368C18.8233 34.2422 19.0786 33.8254 19.2281 33.5284C19.3595 33.2499 19.5628 32.6946 19.6776 32.3052C19.7869 31.9126 19.9029 31.2925 19.9282 30.931C19.959 30.5727 19.9668 30.0637 19.9499 29.8007C19.9299 29.5433 19.9193 29.3202 19.9287 29.3039C19.9381 29.2876 20.5872 29.1416 21.365 28.9759C22.1428 28.8102 22.8124 28.7049 22.8446 28.738C22.8714 28.7679 23.0844 29.39 23.3148 30.1088C23.5452 30.8277 23.7276 31.4393 23.7229 31.4728C23.7159 31.4977 23.5221 31.6172 23.3001 31.735C23.0695 31.855 22.6381 32.1194 22.3377 32.3221C22.0373 32.5248 21.5919 32.8897 21.3521 33.1273C21.1122 33.3649 20.7541 33.7946 20.5543 34.0771C20.3122 34.4074 20.093 34.7872 19.9279 35.162C19.7832 35.4762 19.6011 36.0076 19.5153 36.3341C19.4294 36.6607 19.3345 37.2062 19.3044 37.5505C19.2775 37.8893 19.2704 38.3843 19.2905 38.6418C19.3074 38.9047 19.3148 39.1332 19.3023 39.1549C19.2921 39.1852 18.6541 39.3376 17.8935 39.4988C17.1298 39.6654 16.4846 39.792 16.4516 39.7729C16.4241 39.7571 16.1978 39.1201 15.9469 38.3604C15.6628 37.4804 15.5238 36.9589 15.5763 36.9314ZM14.267 33.2028C13.8291 31.865 13.4873 30.7419 13.5061 30.7094C13.5218 30.6822 14.6684 30.4112 16.049 30.1162C18.5551 29.5741 18.5638 29.5718 18.5884 29.7452C18.6058 29.842 18.6056 30.2108 18.5897 30.556C18.5793 30.9044 18.5141 31.4237 18.4479 31.7037C18.3816 31.9836 18.2174 32.4458 18.0915 32.7275C17.9655 33.0092 17.7299 33.43 17.5646 33.6528C17.4047 33.8788 17.1022 34.2249 16.8984 34.4255C16.6946 34.6261 16.297 34.9462 16.0084 35.1412C15.7229 35.3308 15.3919 35.523 15.2734 35.5631L15.0592 35.6419L14.267 33.2028ZM20.6404 37.8155C20.658 37.5436 20.7302 37.0501 20.8106 36.7204C20.9369 36.1713 20.9956 36.0315 21.4184 35.2992C21.8192 34.6049 21.9422 34.43 22.2652 34.1246C22.4745 33.9272 22.8195 33.6346 23.0266 33.4793C23.2367 33.3185 23.5803 33.1046 23.7905 32.9945L24.1781 32.806C25.6229 37.2783 25.78 37.8319 25.6944 37.8403C25.6348 37.8421 24.4983 38.0828 23.1718 38.3729C21.843 38.6545 20.7324 38.8885 20.7041 38.8866C20.6759 38.8847 20.6435 38.7503 20.6322 38.5919C20.6265 38.4367 20.6314 38.0852 20.6404 37.8155ZM30.4098 14.1992L31.5406 14.8449C31.2363 15.4865 31.1487 15.7397 31.1528 15.8216C31.1568 15.9035 31.1924 16.0325 31.2302 16.1195C31.2893 16.2331 31.5188 16.3946 32.2772 16.8469L33.2415 17.4253C32.9502 17.9298 32.8635 18.1691 32.8542 18.2867C32.8481 18.3989 32.901 18.5741 32.9608 18.6737C33.0608 18.8182 33.3241 18.9847 34.4361 19.6122L35.7901 20.3795C36.2422 20.2572 36.2931 20.207 36.5195 19.8531L36.7622 19.458L37.8931 20.1037C37.6138 20.7019 37.5372 20.9615 37.5429 21.066C37.5462 21.1619 37.5975 21.3145 37.6526 21.3969C37.7077 21.4794 37.9144 21.6421 38.1125 21.7565L38.47 21.9629L37.1233 24.2955C36.4467 23.9048 36.3021 23.8503 36.1255 23.8641C35.9834 23.8688 35.8351 23.9351 35.7269 24.0462C35.6337 24.1443 35.4871 24.3345 35.4057 24.4755L35.2554 24.7359L34.1001 24.0689C34.5361 23.2502 34.5439 23.2113 34.4635 22.9696L34.3727 22.7075L31.6222 21.1194C31.1002 21.2231 31.0704 21.2493 30.8339 21.6335L30.5794 22.0362C29.1962 21.2304 28.7075 20.9844 28.5983 20.9576C28.4946 20.9339 28.3149 20.953 28.2042 21.0049C28.0151 21.091 27.9439 21.2017 26.0122 24.484L24.0178 27.8748C23.8973 27.5882 23.8138 27.4532 23.7493 27.387C23.6848 27.3209 23.5434 27.2609 23.4311 27.2395C23.3243 27.2212 23.1453 27.2263 23.0362 27.2502L22.8408 27.2964L30.4098 14.1992Z" fill="white"/>
</svg>
