<svg width="26" height="26" viewBox="0 0 26 26" fill="none" xmlns="http://www.w3.org/2000/svg">
<path d="M4.77037 7.80476L9.47551 11.5165L9.47708 11.5179C9.99953 11.9181 10.2609 12.1184 10.5472 12.1957C10.8002 12.2641 11.0662 12.2641 11.3193 12.1957C11.6058 12.1183 11.868 11.9175 12.3913 11.5165C12.3913 11.5165 15.4092 9.09716 17.0963 7.80476M4 15.6916V9.5754C4 8.67398 4 8.22293 4.16793 7.87864C4.31565 7.57579 4.55118 7.32974 4.84109 7.17543C5.17067 7 5.60244 7 6.46534 7H15.4016C16.2645 7 16.6954 7 17.025 7.17543C17.3149 7.32974 17.5512 7.57579 17.6989 7.87864C17.8667 8.2226 17.8667 8.6731 17.8667 9.57275V15.6943C17.8667 16.594 17.8667 17.0438 17.6989 17.3878C17.5512 17.6906 17.3149 17.9371 17.025 18.0914C16.6957 18.2667 16.2651 18.2667 15.4039 18.2667H6.4628C5.6016 18.2667 5.17035 18.2667 4.84109 18.0914C4.55118 17.9371 4.31565 17.6906 4.16793 17.3878C4 17.0435 4 16.593 4 15.6916Z" stroke="#999999" stroke-width="1.3" stroke-linecap="round" stroke-linejoin="round"/>
</svg>
