<svg width="26" height="26" viewBox="0 0 26 26" fill="none" xmlns="http://www.w3.org/2000/svg">
<path d="M9.38303 7.84746C9.1783 7.33562 8.68259 7 8.13134 7H6.27716C5.5718 7 5 7.57168 5 8.27706C5 14.2727 9.86047 19.1333 15.856 19.1333C16.5614 19.1333 17.133 18.5615 17.133 17.8561L17.1333 16.0016C17.1333 15.4503 16.7978 14.9547 16.286 14.7499L14.5089 14.0393C14.0491 13.8554 13.5257 13.9382 13.1453 14.2552L12.6866 14.6377C12.151 15.0841 11.3628 15.0486 10.8698 14.5556L9.57834 13.2629C9.08531 12.7698 9.04888 11.9823 9.49525 11.4467L9.8777 10.988C10.1947 10.6076 10.2782 10.084 10.0943 9.62423L9.38303 7.84746Z" fill="#999999"/>
</svg>
