<svg width="19" height="19" viewBox="0 0 19 19" fill="none" xmlns="http://www.w3.org/2000/svg">
<path fill-rule="evenodd" clip-rule="evenodd" d="M16.2316 2.76098C14.4458 0.98142 12.0706 0.00090287 9.5399 0C4.32519 0 0.0811965 4.22318 0.079382 9.41423C0.0784748 11.0737 0.514396 12.6934 1.34224 14.1209L0 19L5.01513 17.6908C6.39682 18.4411 7.95271 18.8361 9.53584 18.8366H9.5399C14.7537 18.8366 18.9982 14.6129 19 9.4219C19.0009 6.90608 18.0179 4.54099 16.2316 2.76143V2.76098ZM9.5399 17.2466H9.53673C8.12598 17.2462 6.74204 16.8688 5.53454 16.156L5.24739 15.9863L2.27124 16.7631L3.06551 13.8753L2.87862 13.5792C2.0916 12.3332 1.67564 10.8931 1.67655 9.4147C1.67836 5.10032 5.20565 1.58995 9.54312 1.58995C11.6433 1.59086 13.6175 2.4057 15.1021 3.88505C16.5868 5.36396 17.4037 7.33042 17.4028 9.421C17.401 13.7358 13.8737 17.2462 9.5399 17.2462V17.2466ZM13.8528 11.3861C13.6165 11.2683 12.4544 10.6994 12.2375 10.6209C12.0207 10.5423 11.8633 10.5031 11.7059 10.7387C11.5485 10.9744 11.0954 11.5044 10.9575 11.661C10.8196 11.8181 10.6816 11.8376 10.4453 11.7197C10.209 11.6019 9.44738 11.3536 8.54425 10.5523C7.84162 9.92839 7.36709 9.15828 7.22924 8.9226C7.09133 8.68697 7.21472 8.55965 7.33263 8.44273C7.43876 8.33711 7.56897 8.16782 7.68735 8.03057C7.80578 7.89333 7.84478 7.79495 7.92369 7.63827C8.00264 7.48117 7.96316 7.34398 7.90421 7.22611C7.84521 7.1083 7.37258 5.95034 7.17524 5.47951C6.98334 5.02086 6.78833 5.08316 6.64361 5.07549C6.50571 5.06871 6.34832 5.06736 6.19046 5.06736C6.03261 5.06736 5.77674 5.12605 5.55993 5.3617C5.34312 5.59733 4.73254 6.16659 4.73254 7.32407C4.73254 8.48155 5.57946 9.60069 5.69784 9.75779C5.81622 9.91489 7.36482 12.2908 9.73586 13.3101C10.2997 13.5525 10.7402 13.6974 11.0835 13.8058C11.6497 13.985 12.165 13.9598 12.5723 13.8992C13.0264 13.8315 13.9708 13.33 14.1677 12.7806C14.3645 12.2312 14.3645 11.7599 14.3056 11.6619C14.2466 11.564 14.0888 11.5048 13.8524 11.387L13.8528 11.3861Z" fill="#999999"/>
</svg>
