<svg width="37" height="36" viewBox="0 0 37 36" fill="none" xmlns="http://www.w3.org/2000/svg">
<circle cx="21.5" cy="15.5" r="15.5" fill="#5896E2" fill-opacity="0.4"/>
<circle cx="15.5" cy="20.5" r="15.5" fill="#5896E2"/>
<path d="M9 18.8515C9 22.9525 12.6381 26.3439 14.2485 27.6441C14.4789 27.8302 14.5956 27.9244 14.7675 27.9721C14.9014 28.0093 15.0984 28.0093 15.2323 27.9721C15.4046 27.9243 15.5204 27.8311 15.7517 27.6443C17.362 26.344 21 22.9529 21 18.8519C21 17.2999 20.3679 15.8113 19.2427 14.7139C18.1174 13.6165 16.5914 13 15.0001 13C13.4088 13 11.8826 13.6166 10.7574 14.714C9.63214 15.8114 9 17.2996 9 18.8515Z" stroke="white" stroke-width="1.5" stroke-linecap="round" stroke-linejoin="round"/>
<path d="M13.2857 18.0715C13.2857 19.0051 14.0533 19.762 15 19.762C15.9468 19.762 16.7143 19.0051 16.7143 18.0715C16.7143 17.1379 15.9468 16.381 15 16.381C14.0533 16.381 13.2857 17.1379 13.2857 18.0715Z" stroke="white" stroke-width="1.5" stroke-linecap="round" stroke-linejoin="round"/>
</svg>
