<svg width="37" height="36" viewBox="0 0 37 36" fill="none" xmlns="http://www.w3.org/2000/svg">
<circle cx="21.5" cy="15.5" r="15.5" fill="#5896E2" fill-opacity="0.4"/>
<circle cx="15.5" cy="20.5" r="15.5" fill="#5896E2"/>
<path d="M7.88889 14.9286L13.3179 19.2114L13.3197 19.213C13.9225 19.6748 14.2241 19.9058 14.5545 19.9951C14.8464 20.0739 15.1533 20.0739 15.4453 19.9951C15.7759 19.9057 16.0784 19.674 16.6823 19.2114C16.6823 19.2114 20.1645 16.4198 22.1111 14.9286M7 24.0288V16.9716C7 15.9315 7 15.4111 7.19377 15.0138C7.36421 14.6644 7.63598 14.3805 7.97049 14.2024C8.35077 14 8.84897 14 9.84462 14H20.1557C21.1514 14 21.6485 14 22.0288 14.2024C22.3633 14.3805 22.636 14.6644 22.8064 15.0138C23 15.4107 23 15.9305 23 16.9686V24.0319C23 25.07 23 25.589 22.8064 25.9859C22.636 26.3353 22.3633 26.6197 22.0288 26.7978C21.6489 27 21.152 27 20.1583 27H9.8417C8.84799 27 8.3504 27 7.97049 26.7978C7.63598 26.6197 7.36421 26.3353 7.19377 25.9859C7 25.5886 7 25.0689 7 24.0288Z" stroke="white" stroke-width="1.5" stroke-linecap="round" stroke-linejoin="round"/>
</svg>
