<svg width="26" height="26" viewBox="0 0 26 26" fill="none" xmlns="http://www.w3.org/2000/svg">
<path d="M6 11.0713C6 14.6255 9.15306 17.5647 10.5487 18.6916C10.7484 18.8529 10.8495 18.9345 10.9985 18.9758C11.1145 19.0081 11.2853 19.0081 11.4013 18.9758C11.5506 18.9344 11.651 18.8536 11.8515 18.6917C13.2471 17.5648 16.4 14.6259 16.4 11.0717C16.4 9.72662 15.8522 8.4365 14.877 7.48541C13.9018 6.53432 12.5792 6 11.2001 6C9.82096 6 8.49825 6.5344 7.52305 7.48549C6.54786 8.43658 6 9.72629 6 11.0713Z" stroke="#989898" stroke-width="1.3" stroke-linecap="round" stroke-linejoin="round"/>
<path d="M9.71431 10.3953C9.71431 11.2045 10.3795 11.8604 11.2 11.8604C12.0206 11.8604 12.6858 11.2045 12.6858 10.3953C12.6858 9.58615 12.0206 8.9302 11.2 8.9302C10.3795 8.9302 9.71431 9.58615 9.71431 10.3953Z" stroke="#989898" stroke-width="1.3" stroke-linecap="round" stroke-linejoin="round"/>
</svg>
