<svg width="37" height="36" viewBox="0 0 37 36" fill="none" xmlns="http://www.w3.org/2000/svg">
<circle cx="21.5" cy="15.5" r="15.5" fill="#5896E2" fill-opacity="0.4"/>
<circle cx="15.5" cy="20.5" r="15.5" fill="#5896E2"/>
<path d="M13.0573 14.9778C12.8211 14.3873 12.2491 14 11.6131 14H9.47365C8.65977 14 8 14.6596 8 15.4735C8 22.3916 13.6082 28 20.5262 28C21.34 28 21.9996 27.3402 21.9996 26.5263L22 24.3864C22 23.7503 21.6129 23.1785 21.0223 22.9422L18.9718 22.1223C18.4413 21.9101 17.8373 22.0056 17.3984 22.3714L16.8692 22.8128C16.2511 23.3278 15.3417 23.2868 14.7729 22.718L13.2827 21.2264C12.7138 20.6575 12.6718 19.7488 13.1868 19.1308L13.6281 18.6016C13.9939 18.1626 14.0902 17.5585 13.878 17.028L13.0573 14.9778Z" fill="white"/>
</svg>
