<svg width="18" height="19" viewBox="0 0 18 19" fill="none" xmlns="http://www.w3.org/2000/svg">
<path d="M6.50246 1.75722C6.19873 0.997902 5.46332 0.5 4.64551 0.5H1.89474C0.848303 0.5 0 1.3481 0 2.39453C0 11.2892 7.21078 18.5 16.1055 18.5C17.1519 18.5 18 17.6516 18 16.6052L18.0005 13.854C18.0005 13.0361 17.5027 12.3009 16.7434 11.9971L14.1069 10.9429C13.4249 10.6701 12.6483 10.7929 12.0839 11.2632L11.4035 11.8307C10.6089 12.4929 9.43963 12.4402 8.7082 11.7088L6.79222 9.79106C6.06079 9.05962 6.00673 7.89134 6.66895 7.09668L7.23633 6.4163C7.70661 5.85195 7.83049 5.07516 7.55766 4.39309L6.50246 1.75722Z" fill="#5896E2"/>
</svg>
