<svg width="58" height="58" viewBox="0 0 58 58" fill="none" xmlns="http://www.w3.org/2000/svg">
<rect width="58" height="58" rx="5" fill="#5896E2"/>
<path fill-rule="evenodd" clip-rule="evenodd" d="M28.8711 7.00123C30.2117 6.99264 30.8563 7.02702 31.793 7.16454C32.4547 7.26769 33.4172 7.43959 33.9414 7.55992C34.4656 7.67166 35.2563 7.88654 35.7031 8.03266C36.15 8.17878 36.9406 8.47101 37.4648 8.68589C37.9891 8.89218 38.7969 9.27036 39.2695 9.52822C39.7422 9.77748 40.5328 10.2502 41.0312 10.5768C41.5297 10.9034 42.3203 11.4879 42.793 11.8661C43.2656 12.2443 44.0562 12.9577 44.5461 13.4476C45.0359 13.9376 45.7492 14.7283 46.1273 15.201C46.5055 15.6738 47.0383 16.3872 47.3047 16.7912C47.5797 17.1951 48.0094 17.9085 48.2758 18.3813C48.5422 18.854 48.9461 19.6877 49.1781 20.2292C49.4102 20.7707 49.7625 21.699 49.9516 22.2921C50.1406 22.8851 50.3727 23.7361 50.4672 24.183C50.5703 24.63 50.725 25.5496 50.8195 26.2287C50.9484 27.0882 51 27.8875 51 28.9362C51 29.7699 50.9398 30.8615 50.8711 31.4459C50.7938 32.0132 50.6391 32.9415 50.5273 33.5088C50.4156 34.0761 50.1578 35.0473 49.9602 35.6576C49.7625 36.2678 49.4102 37.2219 49.1781 37.7634C48.9461 38.3049 48.5422 39.1386 48.2758 39.6114C48.0094 40.0841 47.5797 40.7975 47.3047 41.2015C47.0383 41.6055 46.5398 42.2845 46.1961 42.7056C45.8609 43.1268 45.1477 43.9176 44.6148 44.4591C44.0906 44.992 43.2656 45.7483 42.793 46.1265C42.3203 46.5047 41.5125 47.0978 40.9883 47.4416C40.4641 47.7768 39.6391 48.2667 39.1406 48.5332C38.6422 48.791 37.7742 49.1864 37.207 49.4185C36.6398 49.642 35.7547 49.9514 35.2305 50.0975C34.7062 50.2522 33.9758 50.4413 33.5977 50.5187C33.2195 50.596 32.3859 50.7335 31.75 50.8281C30.9078 50.957 30.1516 51 29 51C27.8312 51 27.0922 50.957 26.207 50.8195C25.5453 50.725 24.6344 50.5616 24.1875 50.4671C23.7406 50.3725 22.8898 50.1405 22.2969 49.9514C21.7039 49.7623 20.8016 49.4185 20.2773 49.2036C19.7531 48.9801 18.9281 48.5676 18.4297 48.2925C17.9312 48.0175 17.2008 47.5791 16.7969 47.3041C16.393 47.0376 15.7227 46.5391 15.293 46.1953C14.8633 45.8601 14.0812 45.1467 13.5398 44.6138C13.007 44.0895 12.2508 43.2643 11.8727 42.7916C11.4945 42.3189 10.9617 41.6055 10.6953 41.2015C10.4289 40.7975 10.0078 40.1185 9.76719 39.6973C9.52656 39.2762 9.14844 38.5198 8.93359 38.0213C8.71016 37.5227 8.36641 36.6374 8.16016 36.0444C7.9625 35.4513 7.69609 34.523 7.56719 33.9815C7.44688 33.44 7.26641 32.4344 7.17188 31.7468C7.05156 30.8959 7 30.0363 7 29.0393C7 28.0852 7.05156 27.1484 7.16328 26.3318C7.25781 25.6442 7.42969 24.6214 7.55859 24.0541C7.6875 23.4868 7.9625 22.5413 8.16016 21.9483C8.36641 21.3552 8.71016 20.4699 8.93359 19.9714C9.14844 19.4729 9.52656 18.7165 9.76719 18.2953C10.0078 17.8656 10.4289 17.1951 10.6953 16.7912C10.9617 16.3872 11.4945 15.6738 11.8727 15.201C12.2508 14.7283 13.007 13.9032 13.5398 13.3789C14.0812 12.846 14.8633 12.1326 15.293 11.7973C15.7227 11.4535 16.393 10.955 16.7969 10.6886C17.2008 10.4135 17.9141 9.98376 18.3867 9.71731C18.8594 9.45086 19.693 9.04689 20.2344 8.81482C20.7758 8.58275 21.7039 8.23035 22.2969 8.04125C22.8898 7.85216 23.775 7.61149 24.2734 7.49976C24.7719 7.39661 25.6227 7.2419 26.1641 7.16454C26.8086 7.07 27.7453 7.00983 28.8711 7.00123ZM26.0352 8.50539C25.5109 8.57415 24.5484 8.77184 23.8867 8.93515C23.225 9.09846 22.3141 9.37351 21.8672 9.54541C21.4203 9.70872 20.5523 10.0869 19.9336 10.3877C19.3148 10.6886 18.4641 11.1527 18.043 11.4192C17.6133 11.6942 16.9 12.1841 16.4531 12.5279C16.0063 12.8632 15.2242 13.5422 14.7 14.0407C14.1844 14.5392 13.4539 15.3128 13.0844 15.7597C12.7063 16.2067 12.0875 17.0404 11.7094 17.6077C11.3312 18.175 10.7641 19.1806 10.4375 19.8424C10.1109 20.5043 9.70703 21.4326 9.53516 21.9053C9.35469 22.378 9.08828 23.2633 8.93359 23.8822C8.77891 24.501 8.58125 25.4637 8.49531 26.031C8.375 26.8045 8.34063 27.5523 8.34063 28.9963C8.34063 30.4403 8.375 31.1881 8.49531 31.9617C8.58125 32.5289 8.77891 33.5002 8.93359 34.1105C9.08828 34.7207 9.35469 35.6146 9.53516 36.0873C9.70703 36.5601 10.1109 37.4884 10.4375 38.1502C10.7641 38.812 11.3312 39.8177 11.7094 40.3849C12.0875 40.9522 12.7063 41.786 13.0844 42.2329C13.4539 42.6799 14.1844 43.4534 14.7 43.9519C15.2242 44.4505 16.0063 45.1295 16.4531 45.4647C16.9 45.8085 17.6133 46.2984 18.043 46.5735C18.4641 46.8399 19.3148 47.3041 19.9336 47.6049C20.5523 47.9057 21.4203 48.2839 21.8672 48.4472C22.3141 48.6191 23.225 48.8942 23.8867 49.0575C24.5484 49.2208 25.5367 49.4271 26.0781 49.513C26.8 49.6248 27.5906 49.6591 29 49.6591C30.4438 49.6591 31.1914 49.6248 31.9648 49.5044C32.532 49.4185 33.5031 49.2208 34.1133 49.0661C34.7234 48.9114 35.6172 48.6449 36.0898 48.4644C36.5625 48.2925 37.4906 47.8885 38.1523 47.5619C38.8141 47.2353 39.8195 46.668 40.3867 46.2898C40.9539 45.9116 41.7875 45.2928 42.2344 44.9146C42.6813 44.545 43.4547 43.8144 43.9531 43.2987C44.4516 42.7744 45.1305 41.9922 45.4656 41.5453C45.8094 41.0983 46.3078 40.3763 46.5742 39.9552C46.8406 39.534 47.3047 38.6745 47.6055 38.0642C47.9062 37.454 48.293 36.5601 48.4648 36.0873C48.6453 35.6146 48.9117 34.7207 49.0664 34.1105C49.2211 33.5002 49.4188 32.5289 49.5047 31.9617C49.625 31.1881 49.6594 30.4403 49.6594 28.9963C49.6594 27.5523 49.625 26.8045 49.5047 26.031C49.4188 25.4637 49.2211 24.501 49.0664 23.8822C48.9117 23.2633 48.6453 22.378 48.4648 21.9053C48.293 21.4326 47.8891 20.5043 47.5625 19.8424C47.2359 19.1806 46.6688 18.175 46.2906 17.6077C45.9125 17.0404 45.2938 16.2067 44.9156 15.7597C44.5375 15.3128 43.85 14.5736 43.3859 14.1266C42.9133 13.6711 42.2258 13.0522 41.8477 12.7514C41.4695 12.4506 40.7562 11.9435 40.2578 11.6168C39.7594 11.2902 38.8141 10.7573 38.1523 10.4307C37.4906 10.1041 36.5625 9.70012 36.0898 9.52822C35.6172 9.34772 34.7062 9.08127 34.0703 8.91796C33.4344 8.76325 32.5063 8.57415 32.0078 8.4968C31.5094 8.41944 30.3492 8.35068 29.4297 8.33349C28.5102 8.3163 27.582 8.3163 27.3672 8.33349C27.1523 8.35068 26.5594 8.42804 26.0352 8.50539ZM29.6016 10.1471C30.143 10.1643 31.0367 10.2416 31.5781 10.3104C32.1195 10.3791 32.9703 10.5425 33.4688 10.6628C33.9672 10.7831 34.7578 11.0152 35.2305 11.1785C35.7031 11.3332 36.6313 11.7372 37.293 12.0552C37.9547 12.3818 38.8484 12.8803 39.2695 13.1554C39.6906 13.439 40.4297 13.9805 40.9023 14.3587C41.375 14.7369 42.1398 15.4503 42.6125 15.9402C43.0766 16.4302 43.7211 17.1779 44.0391 17.6077C44.357 18.0289 44.8297 18.7079 45.0789 19.1119C45.3281 19.5158 45.7492 20.3066 46.0242 20.8739C46.2906 21.4411 46.6516 22.2921 46.8148 22.7648C46.9781 23.2375 47.2102 24.0283 47.3305 24.5268C47.4508 25.0253 47.6141 25.8935 47.7 26.4607C47.7859 27.0968 47.8375 28.068 47.8375 28.9963C47.8375 29.9246 47.7859 30.8959 47.7 31.5319C47.6141 32.0992 47.4508 32.9673 47.3305 33.4658C47.2102 33.9643 46.9781 34.7551 46.8148 35.2278C46.6516 35.7006 46.2906 36.5515 46.0242 37.1188C45.7492 37.6861 45.3281 38.4768 45.0789 38.8808C44.8297 39.2848 44.357 39.9638 44.0391 40.3849C43.7211 40.8061 43.1109 41.5195 42.6984 41.9665C42.2773 42.4134 41.5641 43.0838 41.1172 43.4534C40.6703 43.8316 39.8969 44.4075 39.3984 44.7427C38.9 45.0693 37.9547 45.6108 37.293 45.9288C36.6313 46.2555 35.7031 46.6508 35.2305 46.8141C34.7578 46.9775 33.9672 47.2095 33.4688 47.3299C32.9703 47.4502 32.1023 47.6135 31.5352 47.6994C30.8992 47.7854 29.9195 47.837 29 47.837C28.0461 47.837 27.118 47.7854 26.4648 47.6909C25.8977 47.6135 24.9094 47.4158 24.2734 47.2525C23.6375 47.0892 22.6664 46.7798 22.125 46.5563C21.5836 46.3414 20.8617 46.032 20.5352 45.8601C20.2086 45.6968 19.5813 45.353 19.1602 45.0865C18.7391 44.8287 18.0688 44.3817 17.682 44.0895C17.2953 43.8058 16.9344 43.4792 16.8828 43.3675C16.8398 43.2643 16.7969 43.1268 16.7969 43.0666C16.7883 43.0151 16.8656 42.8604 16.9688 42.7228C17.0977 42.5509 17.218 42.4908 17.4156 42.4908C17.6305 42.4908 17.8797 42.6197 18.3867 43.0065C18.7648 43.2901 19.3836 43.7113 19.7617 43.9433C20.1398 44.1754 20.8961 44.588 21.4375 44.8458C21.9789 45.1037 22.8898 45.4733 23.457 45.6624C24.0242 45.8515 24.9695 46.1007 25.5625 46.2211C26.1555 46.3414 27.1609 46.4789 27.7969 46.5219C28.493 46.5735 29.4039 46.5735 30.0742 46.5305C30.6844 46.4875 31.5438 46.393 31.9648 46.3242C32.3859 46.2469 33.0305 46.1093 33.3828 46.0234C33.7352 45.9288 34.4312 45.714 34.9297 45.5335C35.4281 45.3616 36.2789 45.0006 36.8203 44.7255C37.3617 44.4505 38.1609 43.9949 38.582 43.7199C39.0031 43.4362 39.6648 42.9635 40.043 42.6541C40.4211 42.3532 41.0398 41.7946 41.418 41.4164C41.7961 41.0382 42.3547 40.4193 42.6555 40.0411C42.9648 39.6629 43.4375 39.0011 43.7211 38.58C43.9961 38.1588 44.443 37.3852 44.7008 36.8609C44.9672 36.3366 45.3367 35.4943 45.5172 34.97C45.7062 34.4457 45.9469 33.6549 46.0586 33.208C46.1703 32.761 46.325 31.9703 46.4023 31.4459C46.4969 30.8443 46.5484 29.9504 46.5484 28.9963C46.5484 28.0423 46.4969 27.1484 46.4023 26.5467C46.325 26.0224 46.1703 25.2316 46.0586 24.7847C45.9469 24.3377 45.7148 23.5642 45.543 23.0656C45.3625 22.5671 45.0016 21.7162 44.7266 21.1747C44.4516 20.6332 43.9875 19.8167 43.6953 19.3697C43.3945 18.9228 42.9219 18.2609 42.6297 17.9085C42.3375 17.5561 41.7961 16.9545 41.418 16.5763C41.0398 16.1981 40.4383 15.648 40.0859 15.3644C39.7336 15.0721 39.0719 14.5994 38.625 14.2985C38.1781 14.0063 37.3617 13.5422 36.8203 13.2671C36.2789 12.9921 35.4281 12.6311 34.9297 12.4506C34.4312 12.2787 33.6578 12.0466 33.2109 11.9349C32.7641 11.8231 31.9734 11.6684 31.4492 11.5911C30.8477 11.4965 29.9539 11.4449 29 11.4449C28.0461 11.4449 27.1523 11.4965 26.5508 11.5911C26.0266 11.6684 25.2359 11.8231 24.7891 11.9349C24.3422 12.0466 23.5516 12.2873 23.0273 12.4764C22.5031 12.6569 21.6609 13.0265 21.1367 13.2929C20.6125 13.5508 19.8391 13.9977 19.418 14.2728C18.9969 14.5564 18.3352 15.0291 17.957 15.3386C17.5789 15.6394 16.9602 16.1981 16.582 16.5763C16.2039 16.9545 15.6625 17.5561 15.3703 17.9085C15.0781 18.2609 14.6055 18.9228 14.3047 19.3697C14.0125 19.8167 13.5484 20.6332 13.2734 21.1747C12.9984 21.7162 12.6375 22.5671 12.457 23.0656C12.2852 23.5642 12.0531 24.3377 11.9414 24.7847C11.8297 25.2316 11.675 26.0224 11.5977 26.5467C11.5031 27.1398 11.4516 28.0508 11.4516 28.9963C11.4516 29.9676 11.5031 30.8357 11.5977 31.4459C11.675 31.9703 11.8297 32.761 11.9414 33.208C12.0531 33.6549 12.2852 34.4285 12.4656 34.927C12.6375 35.4255 13.007 36.2936 13.2906 36.8609C13.5828 37.4282 14.0297 38.219 14.2961 38.6229C14.5625 39.0269 15.0094 39.6458 15.2844 39.9982C15.6797 40.4881 15.8 40.7116 15.8086 40.9264C15.8086 41.1327 15.7484 41.2617 15.5938 41.382C15.4734 41.4765 15.3016 41.5539 15.207 41.5539C15.1125 41.5539 14.9234 41.4593 14.7859 41.3562C14.6484 41.2445 14.2789 40.8061 13.9609 40.3849C13.643 39.9638 13.1703 39.259 12.9125 38.8378C12.6461 38.4166 12.3023 37.7978 12.1391 37.4626C11.9672 37.1274 11.6578 36.414 11.443 35.8725C11.2195 35.331 10.9102 34.3597 10.7469 33.7237C10.5836 33.0876 10.3859 32.0992 10.3086 31.5319C10.2141 30.8787 10.1625 29.9418 10.1625 28.9963C10.1625 28.0594 10.2141 27.1054 10.3 26.4607C10.3859 25.8935 10.5492 25.0253 10.6695 24.5268C10.7898 24.0283 11.0219 23.2375 11.1852 22.7648C11.3484 22.2921 11.7094 21.4411 11.9758 20.8739C12.2508 20.3066 12.6891 19.49 12.9469 19.0689C13.2133 18.6477 13.6945 17.9429 14.0211 17.5217C14.3477 17.092 14.9492 16.4044 15.3445 15.9832C15.7398 15.562 16.4359 14.9088 16.8828 14.5392C17.3297 14.161 18.1031 13.5766 18.6016 13.2499C19.1 12.9233 20.0453 12.3818 20.707 12.0638C21.3687 11.7372 22.2969 11.3418 22.7695 11.1785C23.2422 11.0152 24.0328 10.7831 24.5312 10.6628C25.0297 10.5425 25.743 10.3963 26.1211 10.3362C26.4992 10.2846 27.2125 10.2072 27.7109 10.1729C28.2094 10.1385 29.0602 10.1213 29.6016 10.1471ZM36.7773 19.576C37.0867 19.5932 37.4477 19.6791 37.6797 19.7995C37.9117 19.9112 38.5992 20.5215 39.3812 21.295C40.3523 22.2491 40.7562 22.7132 40.9281 23.0656C41.1086 23.4352 41.1602 23.6587 41.1602 24.0971C41.1516 24.5268 41.1 24.7675 40.9281 25.1285C40.7391 25.5153 39.9656 26.3318 36.6312 29.6581C33.1078 33.1822 32.532 33.7237 32.3086 33.7237C32.1711 33.7323 31.9563 33.6635 31.8445 33.5776C31.707 33.4744 31.6354 33.3312 31.6297 33.1478C31.6211 32.8899 31.9391 32.5461 35.6688 28.8072C39.0203 25.4379 39.7422 24.6815 39.8281 24.3979C39.8797 24.2088 39.9055 23.9423 39.8711 23.7962C39.8281 23.6243 39.3984 23.1258 38.5047 22.2319C37.4734 21.2005 37.1469 20.9168 36.9062 20.8739C36.743 20.8395 36.468 20.8567 36.3047 20.9082C36.0812 20.977 34.6633 22.3436 30.5039 26.5037C25.6742 31.3342 24.9695 32.0046 24.7461 32.0046C24.6 32.0046 24.4023 31.9445 24.2906 31.8757C24.1531 31.7812 24.1016 31.6608 24.1016 31.4202C24.1016 31.1365 24.1789 31.0248 25.4336 29.7699L23.8438 28.1798C22.9672 27.3031 22.1164 26.5295 21.9531 26.4521C21.7469 26.3576 21.5578 26.3318 21.3516 26.3748C21.1109 26.4178 20.7672 26.7186 19.6156 27.8618C18.4727 29.0135 18.1719 29.3573 18.1289 29.598C18.0859 29.7957 18.1117 30.002 18.2062 30.1996C18.2836 30.3801 19.65 31.8069 21.5406 33.6893C24.3078 36.4398 24.8062 36.9039 25.1758 37.0414C25.4508 37.1446 25.8203 37.2047 26.207 37.2047C26.6711 37.2047 26.9031 37.1532 27.2383 36.9898C27.5047 36.8609 28.0977 36.3624 28.8109 35.6834C29.4297 35.0817 30.0141 34.5832 30.1 34.5832C30.1773 34.5746 30.3492 34.652 30.4867 34.7551C30.6672 34.8926 30.7188 34.9958 30.7188 35.245C30.7188 35.5459 30.6328 35.649 29.5758 36.6976C28.7336 37.5399 28.3039 37.8923 27.9086 38.0986C27.6078 38.2447 27.0836 38.4081 26.7484 38.4682C26.2586 38.5456 25.9922 38.5456 25.5453 38.4682C25.2188 38.4081 24.7203 38.2447 24.4281 38.0986C23.9641 37.8666 23.4055 37.3508 20.5953 34.5488C17.9398 31.9015 17.2609 31.1795 17.0719 30.8013C16.8914 30.4317 16.8398 30.2082 16.8398 29.7699C16.8484 29.3745 16.9 29.0823 17.0375 28.7814C17.1836 28.4634 17.6133 27.9735 18.6703 26.9163C19.7273 25.8591 20.2172 25.4293 20.5352 25.2832C20.8445 25.1457 21.1281 25.0941 21.5234 25.0941C21.9187 25.0941 22.2023 25.1457 22.5117 25.2832C22.8383 25.4293 23.3625 25.9021 26.3359 28.8674L30.8734 24.3377C35.0414 20.1777 35.4367 19.7995 35.832 19.6791C36.0898 19.5932 36.468 19.5588 36.7773 19.576Z" fill="white"/>
</svg>
