<svg width="58" height="58" viewBox="0 0 58 58" fill="none" xmlns="http://www.w3.org/2000/svg">
<rect width="58" height="58" rx="5" fill="#5896E2"/>
<path fill-rule="evenodd" clip-rule="evenodd" d="M28.9515 7.00093C29.2864 6.99233 29.5948 7.0439 29.7887 7.13845C29.9562 7.21581 30.2205 7.36193 30.3615 7.47367C30.5025 7.57681 30.7493 7.86905 31.1547 8.58245L31.1987 12.1495L32.2386 11.2126C32.8026 10.7055 33.4107 10.207 33.5781 10.121C33.7984 10.0093 34.0628 9.96629 34.5034 9.96629C34.9529 9.96629 35.2172 10.0179 35.4728 10.1468C35.6667 10.2499 35.931 10.439 36.0544 10.5766C36.1866 10.7055 36.3629 10.9547 36.4422 11.1181C36.5303 11.2814 36.6184 11.608 36.6449 11.8486C36.6713 12.1237 36.636 12.4417 36.5391 12.734C36.4157 13.1293 36.2571 13.3098 35.2349 14.2811C34.5915 14.8914 33.4195 15.983 31.1987 18.0372V21.2175L33.0053 22.2231C34.0011 22.7818 34.8471 23.2373 34.9 23.2373C34.9529 23.2373 35.5697 22.9193 36.2747 22.5239C36.9885 22.1372 37.5966 21.7848 37.6319 21.7332C37.6671 21.6816 38.0637 20.2376 38.5043 18.51C38.9449 16.7823 39.3767 15.2266 39.4649 15.0375C39.5442 14.857 39.7557 14.5819 39.9231 14.4358C40.0905 14.2811 40.4078 14.092 40.6281 14.0061C40.9013 13.9029 41.1921 13.8599 41.5622 13.8857C41.9676 13.9029 42.1967 13.9717 42.5228 14.1694C42.796 14.3327 43.0516 14.5819 43.219 14.8484C43.4305 15.175 43.501 15.3985 43.5186 15.7939C43.5451 16.1721 43.4746 16.619 43.2719 17.3926C43.1221 17.9857 42.9811 18.5358 42.9634 18.6131C42.937 18.6991 42.9546 18.7678 43.0075 18.7678C43.0604 18.7678 43.7213 18.424 44.4792 18.0028C45.2459 17.5817 46.0478 17.1949 46.2681 17.1347C46.4884 17.0832 46.8233 17.0574 47.0172 17.0917C47.2111 17.1261 47.5636 17.2551 47.8015 17.384C48.0306 17.5043 48.3391 17.7622 48.4801 17.9513C48.6211 18.1404 48.7797 18.51 48.8414 18.7678C48.9207 19.1288 48.9119 19.3437 48.8326 19.6703C48.7709 19.9024 48.6211 20.2376 48.4889 20.4009C48.3655 20.5642 48.1716 20.7705 48.0747 20.8479C47.9777 20.9252 47.2728 21.3292 46.5149 21.7504C45.7482 22.1629 45.1225 22.5239 45.1225 22.5497C45.1225 22.5755 45.6424 22.7474 46.2857 22.9279C46.9291 23.1084 47.6517 23.3663 47.8808 23.4866C48.1188 23.6069 48.4184 23.8476 48.5418 24.0109C48.6651 24.1742 48.8238 24.4837 48.8943 24.6985C48.9824 24.9564 49.0088 25.24 48.9648 25.5581C48.9383 25.8245 48.8149 26.1941 48.6916 26.3918C48.5682 26.5981 48.3038 26.8731 48.0923 27.0107C47.8896 27.1482 47.5195 27.3115 47.2816 27.3717C46.9379 27.449 46.744 27.449 46.4003 27.3717C46.1536 27.3201 45.5719 27.1568 45.0961 27.0193C44.4968 26.8388 44.2148 26.7098 44.1531 26.5895C44.1002 26.4949 44.0738 26.2973 44.0826 26.1425C44.1002 25.9706 44.1884 25.8159 44.5937 25.5151L45.7217 25.8417C46.5589 26.0824 46.8938 26.1425 47.0612 26.091C47.1846 26.048 47.3697 25.9019 47.4842 25.7644C47.59 25.6268 47.6869 25.4119 47.6781 25.2744C47.6781 25.1455 47.5812 24.9392 47.4666 24.8017C47.2992 24.604 46.9291 24.4751 45.2018 23.9679C44.0738 23.6327 43.0604 23.2975 42.9458 23.2116C42.8136 23.117 42.7431 22.9795 42.7431 22.8076C42.7431 22.6615 42.7696 22.4896 42.8048 22.4122C42.8489 22.3348 43.8623 21.7246 45.0696 21.0542C46.2769 20.3923 47.3433 19.7477 47.4314 19.6273C47.5195 19.507 47.5988 19.3093 47.59 19.1718C47.59 19.0429 47.4842 18.8194 47.3344 18.6561C47.1406 18.4498 46.9996 18.381 46.7792 18.381C46.5677 18.381 45.8716 18.7248 44.2589 19.6102C43.0427 20.2806 41.9676 20.8307 41.8795 20.8307C41.8002 20.8393 41.6239 20.7619 41.4829 20.6588C41.3155 20.5384 41.245 20.4095 41.245 20.229C41.245 20.0829 41.4653 19.1202 41.7297 18.0802C41.9941 17.0402 42.2144 16.0517 42.2144 15.8884C42.2144 15.6563 42.1527 15.536 41.95 15.3727C41.7914 15.2438 41.5711 15.1578 41.3948 15.1578C41.245 15.1578 41.0335 15.2094 40.9366 15.2696C40.8396 15.3383 40.7162 15.5016 40.6546 15.6392C40.5929 15.7767 40.1699 17.341 39.7116 19.1116C39.2534 20.8823 38.848 22.4122 38.8039 22.4982C38.7687 22.5841 38.4955 22.7904 38.2047 22.9623C37.9139 23.1256 37.0679 23.5898 36.3188 24.0023C35.1115 24.6642 34.944 24.7329 34.7325 24.647C34.6092 24.604 33.5517 24.0281 32.3884 23.3749C31.2252 22.7216 30.1853 22.1028 30.0707 21.9996C29.8768 21.8191 29.868 21.7933 29.8768 17.4785L32.5647 14.9859C34.4505 13.2411 35.2701 12.4245 35.3054 12.2526C35.3318 12.1237 35.3318 11.9346 35.3054 11.8315C35.2789 11.7197 35.1732 11.5564 35.0762 11.4619C34.9793 11.3673 34.7942 11.2642 34.6532 11.2384C34.521 11.204 34.3095 11.2298 34.1774 11.2986C34.0452 11.3673 33.2697 12.0377 32.4589 12.8027C31.6482 13.5591 30.8903 14.2295 30.7757 14.2811C30.67 14.3413 30.4937 14.3671 30.3792 14.3413C30.2734 14.3155 30.1148 14.2295 30.0355 14.1522C29.9033 14.0146 29.8857 13.7052 29.8328 8.78014L29.542 8.53088C29.3657 8.37617 29.163 8.28162 28.9956 8.28162C28.8282 8.28162 28.6255 8.37617 28.1584 8.78014L28.132 11.3931C28.1055 13.7052 28.0879 14.0146 27.9557 14.1522C27.8764 14.2295 27.7178 14.3155 27.6032 14.3413C27.4975 14.3671 27.3212 14.3413 27.2067 14.2811C27.1009 14.2295 26.343 13.5591 25.5323 12.8027C24.7215 12.0377 23.946 11.3673 23.8138 11.2986C23.6816 11.2298 23.4701 11.204 23.3291 11.2384C23.197 11.2642 23.0119 11.3673 22.915 11.4619C22.818 11.5564 22.7123 11.7369 22.6858 11.8744C22.6594 12.0034 22.6594 12.1925 22.6858 12.3042C22.7123 12.4073 23.946 13.6107 28.1143 17.4785V19.6531C28.1232 21.7933 28.1143 21.8191 27.9205 21.9996C27.8059 22.1028 26.8277 22.6873 25.735 23.2975C24.6422 23.9164 23.62 24.4751 23.4613 24.5524C23.3115 24.6384 23.1265 24.6985 23.0648 24.6985C23.0119 24.6985 22.1483 24.2516 21.1525 23.7101C20.1566 23.16 19.3106 22.6701 19.2578 22.6099C19.2049 22.5411 18.9758 21.7848 18.7378 20.908C18.4558 19.8766 18.3325 19.2406 18.3677 19.0858C18.403 18.9483 18.5263 18.8022 18.685 18.7248C18.8524 18.6389 19.0286 18.6217 19.1873 18.6561C19.3106 18.6991 19.4693 18.8022 19.5221 18.8967C19.5838 18.9913 19.7777 19.6445 19.9628 20.3579C20.1478 21.0628 20.3417 21.6988 20.3946 21.759C20.4475 21.8277 21.0555 22.1801 21.7429 22.5583C22.4391 22.9279 23.0383 23.2373 23.0912 23.2373C23.1441 23.2373 23.9901 22.7818 26.7925 21.2175V18.0372L25.356 16.7136C24.5717 15.983 23.3996 14.8828 22.7563 14.2639C21.7605 13.3012 21.5666 13.0778 21.4433 12.7082C21.3551 12.4331 21.3199 12.1237 21.3463 11.8486C21.3728 11.608 21.4785 11.2642 21.5755 11.0751C21.6724 10.886 21.8663 10.6281 22.0073 10.5078C22.1395 10.3789 22.395 10.207 22.5625 10.121C22.774 10.0179 23.0736 9.96629 23.4878 9.96629C23.9284 9.96629 24.1928 10.0093 24.4131 10.121C24.5805 10.207 25.1886 10.7055 26.7925 12.1495L26.8365 8.58245L27.1009 8.11831C27.2507 7.86905 27.4798 7.57681 27.6208 7.47367C27.7618 7.37912 27.9998 7.233 28.1496 7.15564C28.3082 7.06969 28.6519 7.00952 28.9515 7.00093ZM39.7028 24.0969C39.7557 24.0969 40.3814 24.2688 41.1128 24.4837C42.0998 24.7673 42.4876 24.922 42.6286 25.0853C42.7431 25.2057 42.8312 25.369 42.8312 25.4463C42.8401 25.5323 42.7607 25.7042 42.655 25.8331C42.5228 26.0136 42.3994 26.0738 42.1879 26.0738C42.0381 26.0738 41.43 25.9363 39.7909 25.4549L37.0238 26.9763V31.0161L39.7909 32.5374L43.0956 31.5575C45.6689 30.8012 46.5061 30.5863 46.885 30.5949C47.2463 30.5949 47.4931 30.6636 47.8456 30.8527C48.1099 30.9903 48.4272 31.2395 48.5506 31.4028C48.6739 31.5661 48.8237 31.8326 48.8854 32.0045C48.9471 32.1678 48.9912 32.4601 49 32.6491C49 32.8382 48.9471 33.1563 48.8678 33.354C48.7973 33.5602 48.6387 33.8525 48.5241 33.9986C48.4096 34.1533 48.1188 34.3854 47.8808 34.5057C47.6517 34.6346 46.9291 34.8839 46.2857 35.0644C45.6512 35.2535 45.1225 35.4168 45.1225 35.4426C45.1225 35.4684 45.7129 35.8036 46.4267 36.1904C47.1406 36.5858 47.8632 36.9983 48.0306 37.1187C48.1981 37.2476 48.4272 37.4797 48.5329 37.643C48.6475 37.8063 48.7797 38.1157 48.8414 38.3392C48.9119 38.6572 48.9207 38.8635 48.8414 39.2245C48.7797 39.4824 48.6211 39.852 48.4801 40.0411C48.3391 40.2302 48.0306 40.488 47.8015 40.6083C47.5636 40.7373 47.2111 40.8662 47.0172 40.9006C46.8233 40.935 46.4884 40.9092 46.2681 40.8576C46.0478 40.7974 45.2459 40.4107 44.4792 39.9895C43.7213 39.5683 43.0604 39.2245 43.0075 39.2245C42.9546 39.2245 42.937 39.2933 42.9634 39.3706C42.9811 39.4566 43.1221 40.0067 43.2719 40.5998C43.4746 41.3733 43.5451 41.8203 43.5186 42.1985C43.501 42.5938 43.4305 42.8173 43.219 43.1439C43.0516 43.4104 42.796 43.6597 42.5228 43.823C42.1967 44.0207 41.9676 44.0894 41.5622 44.1066C41.1921 44.1324 40.9013 44.0894 40.6281 43.9863C40.4078 43.9003 40.0905 43.7112 39.9231 43.5565C39.7557 43.4104 39.5442 43.1353 39.4649 42.9548C39.3767 42.7658 38.9449 41.21 38.5043 39.4824C38.0637 37.7547 37.6671 36.3021 37.6319 36.2592C37.5966 36.2076 36.9885 35.8552 36.2747 35.4598C35.5697 35.073 34.9529 34.755 34.9 34.755C34.8471 34.755 34.0011 35.2105 31.2075 36.7749L31.1987 39.9551L32.6352 41.2788C33.4195 42.0094 34.5915 43.1096 35.2349 43.7284C36.2307 44.6911 36.4245 44.9146 36.5479 45.2842C36.636 45.5592 36.6713 45.8686 36.6449 46.1437C36.6184 46.3758 36.5127 46.7282 36.4157 46.9173C36.3276 47.1064 36.0985 47.39 35.9222 47.5361C35.7372 47.708 35.3935 47.8799 35.0939 47.9573C34.7766 48.0432 34.4505 48.0776 34.2126 48.0432C34.0099 48.0174 33.7103 47.9315 33.5517 47.8541C33.4019 47.7768 32.8026 47.2869 31.1987 45.8429L31.1547 49.4099L30.8903 49.8654C30.7493 50.1233 30.5025 50.4155 30.3615 50.5187C30.2205 50.6304 29.9562 50.7765 29.7887 50.8539C29.6125 50.9398 29.2688 51 28.9956 51C28.7224 51 28.3787 50.9398 28.2025 50.8539C28.035 50.7765 27.7795 50.6304 27.6297 50.5187C27.4798 50.4155 27.2507 50.1233 26.8365 49.4099L26.7925 45.8429L25.7526 46.7797C25.1886 47.2869 24.5805 47.7854 24.4131 47.8713C24.2016 47.9831 23.9196 48.026 23.4878 48.026C23.0295 48.026 22.7828 47.9831 22.5184 47.8455C22.3245 47.7424 22.0601 47.5533 21.928 47.4158C21.7958 47.2869 21.6107 47.0032 21.5138 46.7883C21.4168 46.5734 21.3287 46.2296 21.3287 46.0148C21.3287 45.7999 21.3904 45.4561 21.4697 45.2412C21.5402 45.0263 21.6724 44.777 21.7517 44.6825C21.831 44.5879 22.2452 44.1926 22.6682 43.7972C23.2851 43.2385 23.4966 43.0924 23.7081 43.0924C23.8579 43.0924 24.0518 43.1697 24.1487 43.2643C24.2545 43.3674 24.325 43.5479 24.325 43.7112C24.325 43.9519 24.1928 44.1152 23.4878 44.8114C22.8533 45.4389 22.6594 45.6795 22.6506 45.86C22.6506 45.9976 22.7035 46.2038 22.774 46.3328C22.8356 46.4703 23.0031 46.625 23.1441 46.6852C23.2851 46.7539 23.5054 46.7797 23.6376 46.7539C23.7874 46.7196 24.3955 46.2296 25.1798 45.5076C25.9024 44.8544 26.581 44.2098 26.7043 44.0808C26.8277 43.9519 27.0304 43.7972 27.1626 43.7284C27.3036 43.6597 27.4975 43.6253 27.6032 43.6511C27.7178 43.6768 27.8764 43.7628 27.9557 43.8402C28.0879 43.9777 28.1055 44.2871 28.1584 49.2122L28.4404 49.4615C28.6255 49.6162 28.8282 49.7107 28.9956 49.7107C29.163 49.7107 29.3657 49.6162 29.8328 49.2122L29.8592 46.5992C29.8857 44.2871 29.9033 43.9777 30.0355 43.8402C30.1148 43.7628 30.2734 43.6768 30.3792 43.6511C30.4937 43.6253 30.67 43.6511 30.7757 43.7112C30.8903 43.7628 31.6482 44.4332 32.4589 45.1896C33.2697 45.9546 34.0452 46.625 34.1774 46.6938C34.3095 46.7625 34.521 46.7883 34.6532 46.7539C34.7942 46.7282 34.9793 46.625 35.0762 46.5305C35.1732 46.4359 35.2789 46.2726 35.3054 46.1609C35.3318 46.0577 35.3318 45.8686 35.3054 45.7311C35.2701 45.5678 34.4505 44.7513 29.8768 40.5138V38.3392C29.868 36.199 29.8768 36.1732 30.0707 35.9927C30.1853 35.8896 31.2957 35.2277 32.547 34.5315C34.6268 33.3626 34.8471 33.2594 35.0586 33.3368C35.1908 33.3883 36.0632 33.8525 37.0062 34.3682C37.9403 34.8925 38.7422 35.3738 38.7775 35.4426C38.8215 35.5114 39.2357 37.0413 39.7028 38.8377C40.1699 40.6341 40.5929 42.2157 40.6546 42.3532C40.7162 42.4907 40.8396 42.654 40.9366 42.7228C41.0335 42.7829 41.245 42.8345 41.3948 42.8345C41.5711 42.8345 41.7914 42.7486 41.95 42.6196C42.1527 42.4563 42.2144 42.336 42.2144 42.1039C42.2144 41.9406 41.9941 40.9522 41.7297 39.9121C41.4653 38.8721 41.245 37.9008 41.245 37.7633C41.245 37.5828 41.3155 37.4539 41.4829 37.3336C41.6239 37.2304 41.8002 37.1531 41.8795 37.1617C41.9676 37.1617 43.0427 37.7117 44.2589 38.3822C46.039 39.362 46.5501 39.6027 46.7969 39.5941C47.0172 39.5855 47.1758 39.5082 47.3433 39.3191C47.4842 39.1643 47.59 38.9495 47.59 38.8119C47.5988 38.683 47.5195 38.4853 47.4314 38.365C47.3433 38.2447 46.2769 37.6 45.0696 36.9382C43.8623 36.2677 42.8489 35.6575 42.8048 35.5801C42.7696 35.5028 42.7431 35.3223 42.7431 35.1847C42.7431 35.0128 42.8136 34.8753 42.9458 34.7722C43.0604 34.6948 44.0738 34.3596 45.2018 34.0244C46.9291 33.5173 47.2992 33.3883 47.4666 33.1821C47.59 33.0531 47.6781 32.8382 47.6781 32.6921C47.6781 32.546 47.59 32.3311 47.4754 32.1936C47.3609 32.0647 47.1582 31.9357 47.0348 31.8928C46.8586 31.8498 45.9244 32.0905 43.2719 32.864C41.3331 33.4313 39.6764 33.8783 39.5882 33.8525C39.5089 33.8353 38.6629 33.3883 37.72 32.864C36.777 32.3483 35.931 31.8326 35.8429 31.7295C35.7019 31.549 35.6843 31.3083 35.6843 28.9962C35.6931 27.0021 35.7195 26.4262 35.8077 26.2887C35.8782 26.1941 36.6625 25.7128 37.5525 25.2229C38.4426 24.7243 39.271 24.2688 39.3944 24.2086C39.5177 24.1484 39.6499 24.0969 39.7028 24.0969ZM16.5699 13.8685C16.9225 13.8685 17.1868 13.9287 17.5393 14.1006C17.8213 14.2381 18.1386 14.4874 18.2884 14.6851C18.4558 14.8914 18.6409 15.3125 18.7731 15.7595C18.8876 16.1635 18.9846 16.619 18.9846 16.7737C18.9934 16.9886 18.9317 17.1089 18.7731 17.2293C18.6497 17.3238 18.447 17.4012 18.306 17.3926C18.1738 17.3926 17.9976 17.3238 17.9095 17.2379C17.8213 17.1605 17.6803 16.7995 17.5922 16.4471C17.4953 16.0947 17.3719 15.6993 17.3102 15.5618C17.2397 15.4329 17.1075 15.2867 17.0106 15.2438C16.9136 15.1922 16.7109 15.1578 16.5699 15.1578C16.4201 15.1578 16.191 15.2524 16.0412 15.3727C15.8385 15.536 15.7768 15.6563 15.7768 15.8884C15.7768 16.0517 15.9971 17.0402 16.2615 18.0802C16.5259 19.1202 16.7462 20.0829 16.7462 20.229C16.7462 20.4095 16.6757 20.5384 16.4994 20.6588C16.3673 20.7619 16.191 20.8393 16.1029 20.8307C16.0236 20.8307 14.9484 20.2806 13.7235 19.6102C12.102 18.7162 11.4234 18.3896 11.2119 18.3896C11.0269 18.3896 10.8506 18.467 10.7096 18.6045C10.5863 18.7162 10.4629 18.9483 10.4364 19.1116C10.4012 19.3351 10.4276 19.4726 10.551 19.6273C10.6479 19.7477 11.6702 20.3665 12.8334 21.0026C13.9879 21.6386 15.0101 22.2317 15.0894 22.3091C15.1864 22.4036 15.2481 22.5927 15.2481 22.7646C15.2481 22.9795 15.1864 23.1084 15.0454 23.2116C14.9308 23.2975 13.9174 23.6327 12.7894 23.9679C11.0621 24.4751 10.692 24.604 10.5246 24.8017C10.4012 24.9392 10.3131 25.1541 10.3131 25.3002C10.3131 25.4463 10.4012 25.6612 10.5158 25.7901C10.6303 25.9277 10.833 26.0566 10.9564 26.091C11.1326 26.1425 12.0668 25.9019 14.7193 25.1283C16.6581 24.561 18.3148 24.1141 18.3941 24.1399C18.4823 24.157 19.3283 24.604 20.2712 25.1283C21.2141 25.644 22.0601 26.1597 22.1483 26.2629C22.2893 26.4434 22.3069 26.684 22.2981 29.0134C22.2981 31.549 22.2981 31.5747 22.0954 31.781C21.9896 31.8928 21.1436 32.3999 20.2271 32.8984C19.3018 33.4055 18.4823 33.8353 18.3941 33.8525C18.3148 33.8783 16.6493 33.4227 14.6929 32.8554C11.1767 31.824 11.1503 31.8154 10.8418 31.9443C10.6744 32.0217 10.4805 32.185 10.4188 32.3053C10.3659 32.4257 10.3131 32.6148 10.3131 32.7351C10.3131 32.8554 10.41 33.0531 10.5246 33.1821C10.692 33.3883 11.0621 33.5173 12.7894 34.0244C13.9174 34.3596 14.9308 34.6948 15.0454 34.7722C15.1864 34.8753 15.2481 35.0128 15.2481 35.2019C15.2481 35.3566 15.204 35.5543 15.1423 35.6317C15.0806 35.7091 14.0936 36.2849 12.9568 36.9038C11.82 37.5312 10.7713 38.1587 10.6303 38.3048C10.4188 38.5369 10.3836 38.6314 10.4364 38.8807C10.4629 39.044 10.5863 39.2761 10.7096 39.3964C10.8594 39.5339 11.0269 39.6113 11.2208 39.6113C11.4146 39.6113 12.1549 39.2503 13.7235 38.3822C14.9484 37.7117 16.0412 37.1617 16.1469 37.1617C16.2615 37.1617 16.4378 37.2476 16.5523 37.3593C16.6669 37.4625 16.7462 37.6516 16.7462 37.7805C16.7462 37.918 16.5259 38.8721 16.2615 39.9121C15.9971 40.9522 15.7768 41.932 15.7768 42.0781C15.7768 42.2328 15.8297 42.4219 15.8914 42.4993C15.9531 42.5767 16.0853 42.6798 16.191 42.7314C16.3056 42.7915 16.4994 42.8345 16.6316 42.8345C16.7726 42.8345 16.9577 42.7829 17.0546 42.7228C17.1516 42.654 17.275 42.4907 17.3366 42.3532C17.3983 42.2157 17.8213 40.6341 18.2884 38.8377C18.7555 37.0413 19.1696 35.5114 19.2137 35.4426C19.249 35.3738 20.0861 34.8667 21.0731 34.3252C22.0601 33.7837 22.9502 33.3282 23.0471 33.311C23.1529 33.2938 24.1311 33.7923 25.4706 34.5487C26.7043 35.2363 27.8059 35.8896 27.9205 35.9927C28.1143 36.1732 28.1232 36.199 28.1143 40.5138L27.0304 41.5108C26.44 42.0523 25.8583 42.5251 25.735 42.5509C25.6116 42.5767 25.4265 42.5509 25.312 42.4993C25.2062 42.4477 25.074 42.3016 25.0212 42.1641C24.9771 42.0352 24.9507 41.8461 24.9771 41.7343C25.0035 41.6312 25.4265 41.1842 26.8013 39.9551L26.7925 36.7749L24.9859 35.7606C23.9901 35.2105 23.1353 34.755 23.0912 34.755C23.0383 34.755 22.4391 35.0644 21.7429 35.434C21.0555 35.8122 20.4475 36.1646 20.3946 36.2334C20.3329 36.2935 19.9275 37.7547 19.4869 39.4824C19.0463 41.21 18.6145 42.7658 18.5263 42.9548C18.447 43.1353 18.2355 43.4104 18.0681 43.5565C17.9006 43.7112 17.5834 43.9003 17.3631 43.9863C17.0899 44.0894 16.7991 44.1324 16.4289 44.1066C16.0236 44.0894 15.7944 44.0207 15.4596 43.8144C15.1952 43.6511 14.9308 43.4018 14.7634 43.1353C14.5607 42.8173 14.4902 42.5938 14.4726 42.1985C14.4461 41.8203 14.5166 41.3733 14.7193 40.5998C14.8691 40.0067 15.0101 39.4566 15.0278 39.3706C15.0542 39.2933 15.0278 39.2245 14.9837 39.2245C14.9308 39.2245 14.2699 39.5683 13.5032 39.9981C12.7453 40.4193 11.9169 40.806 11.679 40.8662C11.3177 40.9522 11.1503 40.9436 10.7537 40.8318C10.4893 40.7545 10.1104 40.5826 9.9165 40.4536C9.705 40.3075 9.47588 40.0325 9.3525 39.7832C9.22913 39.5425 9.12338 39.1987 9.09694 39.0096C9.07931 38.8205 9.10575 38.5111 9.15863 38.322C9.2115 38.1329 9.36131 37.8063 9.50231 37.5914C9.72263 37.2562 9.95175 37.0929 11.3089 36.3451C12.1637 35.8724 12.8687 35.4684 12.8687 35.4426C12.8687 35.4168 12.3488 35.2449 11.7054 35.0644C11.0621 34.8839 10.3395 34.6261 10.1104 34.5057C9.87244 34.3854 9.57281 34.1447 9.44944 33.9814C9.32606 33.8181 9.16744 33.5087 9.09694 33.2938C9.00881 33.0359 8.98237 32.7523 9.02644 32.4343C9.05288 32.1678 9.17625 31.7982 9.29963 31.5919C9.423 31.3942 9.68738 31.1106 9.89006 30.9731C10.1016 30.827 10.4629 30.6722 10.7096 30.6207C10.9476 30.5691 11.2648 30.5433 11.4146 30.5777C11.5556 30.6035 13.1419 31.059 18.2003 32.5374L20.9674 31.0161V26.9763L18.2003 25.4549L14.8956 26.4348C12.3399 27.1826 11.4851 27.406 11.1062 27.3974C10.7361 27.3974 10.5069 27.3287 10.1368 27.1396C9.80194 26.9591 9.564 26.7442 9.36131 26.452C9.19388 26.2027 9.05288 25.8675 9.02644 25.644C8.99119 25.4291 8.99119 25.1025 9.02644 24.9134C9.05288 24.7243 9.19388 24.3891 9.34369 24.157C9.4935 23.925 9.76669 23.6671 9.97819 23.5382C10.1897 23.4264 10.9211 23.16 11.6173 22.9623C12.3047 22.756 12.8687 22.5755 12.8687 22.5497C12.8687 22.5239 12.2254 22.1543 11.4499 21.7332C10.4541 21.1917 9.92531 20.8393 9.66975 20.5642C9.46706 20.3493 9.24675 20.0227 9.19388 19.8336C9.13219 19.6531 9.07931 19.3437 9.07931 19.1546C9.07931 18.9655 9.16744 18.6389 9.26438 18.424C9.36131 18.2091 9.57281 17.9083 9.72263 17.7536C9.88125 17.5903 10.1544 17.3926 10.3307 17.298C10.5158 17.2121 10.8154 17.1089 10.9916 17.0832C11.1767 17.0574 11.5028 17.0746 11.7231 17.1347C11.9434 17.1863 12.7453 17.5817 13.5032 18.0028C14.2699 18.424 14.9308 18.7678 14.9837 18.7678C15.0278 18.7678 15.0542 18.6991 15.0278 18.6131C15.0101 18.5358 14.8691 17.9942 14.7193 17.4098C14.5783 16.8339 14.4549 16.1635 14.4549 15.9314C14.4549 15.6907 14.5166 15.3555 14.5959 15.175C14.6664 15.0031 14.8163 14.7366 14.9308 14.5991C15.0366 14.453 15.345 14.2381 15.6094 14.1006C15.9531 13.9287 16.2174 13.8685 16.5699 13.8685ZM29.0397 23.5124C29.1807 23.5296 30.3263 24.1227 31.5688 24.8275C33.0405 25.6612 33.8689 26.1855 33.9306 26.3059C33.9835 26.4262 34.0187 27.5092 34.0187 28.9962C34.0187 30.5089 33.9835 31.5661 33.9306 31.6779C33.8777 31.7896 33.631 31.9959 33.3754 32.1506C33.1287 32.2967 32.08 32.8898 31.0665 33.4571C30.0443 34.033 29.119 34.4971 28.9956 34.4971C28.8722 34.4971 27.8764 33.99 26.7484 33.354C25.6292 32.7265 24.5893 32.142 24.4395 32.0475C24.2809 31.9529 24.1135 31.7896 24.0606 31.6779C24.0077 31.5661 23.9725 30.5089 23.9725 28.9962C23.9725 27.5092 24.0077 26.4262 24.0606 26.3059C24.1223 26.1855 24.9595 25.6526 26.4664 24.8017C28.2994 23.7617 28.8282 23.4952 29.0397 23.5124ZM25.2503 26.9505L25.3384 31.0676L28.9956 33.1219L32.6528 31.0676L32.6968 26.9333C29.824 25.3346 28.9868 24.8704 28.9692 24.8704C28.9603 24.8704 28.1232 25.3432 27.1009 25.9105L25.2503 26.9505Z" fill="white"/>
</svg>
