<svg width="61" height="55" viewBox="0 0 61 55" fill="none" xmlns="http://www.w3.org/2000/svg">
<circle cx="37.2778" cy="23.7222" r="23.7222" fill="#5896E2" fill-opacity="0.3"/>
<circle cx="25.9815" cy="28.9938" r="23.7222" fill="#5896E2"/>
<path fill-rule="evenodd" clip-rule="evenodd" d="M37.7367 15C38.4094 15 38.6172 15.0164 38.7156 15.082C38.7812 15.1258 38.8742 15.2352 38.918 15.3281C38.9727 15.443 39 15.6617 39 16.0281C39 16.318 38.9727 16.8539 38.9453 17.2148C38.9125 17.5758 38.8359 18.1883 38.7758 18.582C38.7102 18.9758 38.5734 19.6375 38.4695 20.0586C38.3656 20.4797 38.1578 21.207 38.0047 21.6719C37.8516 22.1367 37.5945 22.8367 37.425 23.2305C37.2609 23.6242 36.9602 24.2805 36.7523 24.6961C36.5445 25.1062 36.1781 25.7734 35.943 26.1672C35.7078 26.5664 35.3195 27.1625 35.0898 27.4961C34.8602 27.8297 34.4336 28.393 34.1438 28.7539C33.8539 29.1148 33.2141 29.8148 31.8359 31.2148L31.7812 31.9258C31.7484 32.3141 31.6883 32.8828 31.6391 33.1836C31.5953 33.4844 31.4859 34.0258 31.3984 34.3867C31.3109 34.7477 31.1414 35.3328 31.0156 35.6883C30.8953 36.0383 30.6875 36.5797 30.5508 36.8859C30.4141 37.1977 30.1625 37.7062 29.9875 38.0234C29.8125 38.3406 29.5227 38.8219 29.3477 39.0898C29.1672 39.3578 28.8336 39.8172 28.6094 40.1016C28.3797 40.3859 28.0242 40.8016 27.8164 41.0203C27.5612 41.2865 27.3643 41.4414 27.2258 41.4852C27.0563 41.5398 26.9961 41.5344 26.832 41.4523C26.7281 41.4031 26.6078 41.2938 26.5641 41.2063C26.5258 41.1242 26.3453 40.0578 26.1703 38.8273C25.9898 37.6023 25.8367 36.6016 25.8203 36.5961C25.8039 36.5961 25.6453 36.7273 25.4648 36.8914C25.2789 37.0555 25.0602 37.1977 24.9617 37.2195C24.8469 37.2469 24.7156 37.2305 24.6062 37.1758C24.5078 37.132 22.7141 35.382 20.6141 33.282C17.7539 30.4109 16.7969 29.4266 16.775 29.3008C16.7531 29.2133 16.7641 29.0602 16.7969 28.9727C16.8352 28.8797 16.9828 28.6773 17.1305 28.5188C17.2781 28.3656 17.3984 28.2125 17.3984 28.1797C17.3984 28.1469 17.3547 28.125 17.3055 28.125C17.2508 28.125 16.2117 27.9773 12.7773 27.4797L12.6297 27.3102C12.5148 27.1789 12.4766 27.0859 12.4766 26.9055C12.4766 26.6922 12.5039 26.6484 12.9031 26.2656C13.1328 26.0414 13.532 25.6859 13.7891 25.4836C14.0461 25.2758 14.5383 24.9203 14.8828 24.6852C15.2273 24.4555 15.7359 24.1438 16.0039 23.9961C16.2773 23.8484 16.7531 23.6133 17.0703 23.4711C17.3875 23.3289 17.9016 23.1266 18.2188 23.0117C18.5359 22.9023 19.0664 22.7438 19.3945 22.6562C19.7281 22.5687 20.2914 22.4484 20.6523 22.3883C21.0133 22.3281 21.6422 22.2516 22.7852 22.1695L23.1953 21.743C23.4195 21.5023 23.8406 21.0922 24.125 20.8242C24.4094 20.5563 24.9672 20.0859 25.3555 19.7742C25.7492 19.4625 26.3727 19.0031 26.75 18.7516C27.1273 18.5 27.6305 18.1773 27.8711 18.0352C28.1117 17.8875 28.6531 17.5922 29.0742 17.3734C29.4953 17.1547 30.1844 16.832 30.6055 16.6516C31.0266 16.4711 31.743 16.2031 32.1914 16.05C32.6453 15.8969 33.3563 15.6891 33.7773 15.5797C34.1984 15.4758 34.7508 15.35 35.0078 15.3008C35.2648 15.257 35.7789 15.1805 36.1562 15.1313C36.5336 15.0875 36.8508 15.0383 36.8617 15.0219C36.8727 15.0109 37.2664 15 37.7367 15V15ZM36.457 16.2578C36.1562 16.2906 35.6258 16.3672 35.2812 16.4273C34.9367 16.493 34.3844 16.6078 34.0508 16.6953C33.7227 16.7773 33.1648 16.9359 32.8203 17.0508C32.4758 17.1602 31.907 17.3625 31.5625 17.4992C31.218 17.6359 30.6164 17.8984 30.2227 18.0844C29.8344 18.2703 29.2164 18.593 28.8555 18.8008C28.4945 19.0031 27.9039 19.3695 27.543 19.6102C27.182 19.8508 26.7281 20.1734 26.5312 20.3266C26.3344 20.4742 25.9898 20.7477 25.7656 20.9281C25.5414 21.1141 25.0602 21.5461 24.7047 21.8906C24.3438 22.2352 22.725 24.007 21.1062 25.8281L18.1531 29.1367C23.3539 34.3266 24.8906 35.8141 24.918 35.7922C24.9508 35.7758 26.4383 34.4523 28.2266 32.85C30.0148 31.2531 31.7539 29.6617 32.082 29.3227C32.4156 28.9781 32.8969 28.4422 33.1539 28.125C33.4109 27.8078 33.7938 27.3102 34.0016 27.0203C34.2094 26.7305 34.5375 26.2383 34.7289 25.9266C34.9258 25.6148 35.2484 25.057 35.4563 24.6797C35.6586 24.3023 35.9867 23.6406 36.1781 23.2031C36.3695 22.7656 36.6539 22.0383 36.807 21.5898C36.9656 21.1359 37.1625 20.4961 37.25 20.168C37.3375 19.8344 37.4578 19.3094 37.518 18.9922C37.5836 18.675 37.6656 18.1336 37.7094 17.7891C37.7531 17.4445 37.7969 16.9414 37.8078 16.668C37.8188 16.2633 37.8078 16.1758 37.7422 16.1703C37.6984 16.1703 37.5125 16.1758 37.332 16.1867C37.1516 16.1922 36.7578 16.2305 36.457 16.2578ZM19.7227 23.7773C19.3344 23.8758 18.7656 24.0453 18.4648 24.1547C18.1641 24.2695 17.5242 24.5484 17.043 24.7891C16.5617 25.0242 15.9219 25.3852 15.6211 25.5875C15.3203 25.7844 14.9211 26.0742 14.7297 26.2328C14.5383 26.3859 14.3906 26.5172 14.4016 26.5227C14.4125 26.5281 15.282 26.6594 16.332 26.8125C17.3875 26.9602 18.2844 27.0859 18.3281 27.0859C18.3719 27.0859 19.1266 26.2875 19.9961 25.3141C20.8711 24.3406 21.5766 23.5258 21.5711 23.4984C21.5602 23.4711 21.5383 23.4437 21.5164 23.4437C21.4891 23.4383 21.2375 23.4711 20.9531 23.5148C20.6687 23.5586 20.1164 23.6734 19.7227 23.7773ZM26.925 35.6555C26.9195 35.7102 27.0344 36.618 27.1875 37.668C27.3406 38.7234 27.4719 39.5875 27.4773 39.5984C27.4828 39.6039 27.5867 39.4945 27.707 39.3523C27.8273 39.2102 28.1227 38.7945 28.3633 38.4336C28.6039 38.0727 28.943 37.5094 29.1125 37.1758C29.282 36.8477 29.5281 36.3062 29.6648 35.9727C29.7961 35.6445 29.9711 35.1633 30.0477 34.9062C30.1242 34.6492 30.2391 34.2336 30.2992 33.9766C30.3594 33.7195 30.4359 33.3422 30.4688 33.1289C30.4961 32.9156 30.5344 32.6641 30.5453 32.5711C30.5562 32.4727 30.5508 32.3906 30.5289 32.3906C30.5125 32.3906 29.6977 33.107 28.7188 33.9766C27.7398 34.8461 26.9359 35.6063 26.925 35.6555ZM16.6875 33.6539C16.7641 33.6539 16.9992 33.6758 17.207 33.7086C17.4203 33.7359 17.7648 33.8234 17.9727 33.9C18.1859 33.9711 18.5031 34.1297 18.6836 34.2445C18.8641 34.3648 19.1484 34.6055 19.3125 34.7805C19.482 34.9555 19.7063 35.2453 19.8156 35.4258C19.925 35.6063 20.0672 35.907 20.1273 36.0984C20.193 36.2844 20.2695 36.618 20.3023 36.8367C20.3406 37.1102 20.3406 37.3617 20.3023 37.668C20.2695 37.9086 20.1984 38.2422 20.1438 38.4062C20.0836 38.5703 19.9906 38.8055 19.925 38.9258C19.8648 39.0461 19.7008 39.2977 19.5641 39.4891C19.4055 39.7023 19.1648 39.932 18.9188 40.1016C18.7 40.2547 18.2844 40.5008 18 40.6484C17.7156 40.7906 17.1469 41.0531 16.7422 41.2227C16.3375 41.3922 15.5719 41.6875 15.0469 41.8789C14.5219 42.0703 13.625 42.3766 13.0508 42.557C12.482 42.743 11.968 42.918 11.9187 42.9453C11.8641 42.9781 11.7109 43 11.5742 43C11.3609 43 11.3063 42.9727 11.1641 42.8086C11.0547 42.6773 11 42.557 11 42.4422C11 42.3438 11.257 41.5016 11.5687 40.5664C11.8805 39.6367 12.3016 38.4555 12.5039 37.9414C12.7062 37.4273 13.018 36.7055 13.1984 36.3281C13.3734 35.9508 13.6523 35.4477 13.8109 35.207C13.975 34.9664 14.2211 34.6711 14.3687 34.5508C14.5164 34.4305 14.7734 34.25 14.9375 34.1516C15.1016 34.0531 15.3859 33.9273 15.5664 33.8672C15.7469 33.807 16.0422 33.7359 16.2227 33.7086C16.4031 33.6812 16.6109 33.6594 16.6875 33.6539ZM15.4844 35.1906C15.3477 35.2727 15.1781 35.393 15.1016 35.4641C15.025 35.5352 14.8992 35.6773 14.8172 35.7812C14.7352 35.8852 14.5383 36.2461 14.3742 36.5742C14.2047 36.9078 13.9586 37.4602 13.8164 37.8047C13.6742 38.1492 13.4336 38.7672 13.2859 39.1719C13.1328 39.5766 12.8922 40.2656 12.7445 40.7031C12.5969 41.1406 12.482 41.5016 12.493 41.5125C12.4984 41.518 13.0344 41.343 13.6797 41.1187C14.325 40.8945 15.1398 40.6047 15.4844 40.468C15.8289 40.3367 16.4195 40.0906 16.7969 39.9211C17.1742 39.757 17.6445 39.5273 17.8523 39.407C18.0547 39.2922 18.3336 39.0898 18.4703 38.9531C18.607 38.8164 18.8094 38.5266 18.9188 38.3023C19.1156 37.9031 19.1211 37.8758 19.1211 37.2906C19.1156 36.793 19.0938 36.6289 18.9953 36.3828C18.9297 36.2188 18.782 35.9617 18.6672 35.8086C18.5523 35.6609 18.3391 35.4422 18.1914 35.3273C18.0383 35.218 17.7812 35.0703 17.6172 35.0047C17.4094 34.9227 17.1578 34.8844 16.7969 34.868C16.3977 34.8516 16.2117 34.8734 16.0039 34.9445C15.8562 34.9992 15.6211 35.1086 15.4844 35.1906ZM30.9609 20.0914C31.0977 20.0914 31.3656 20.1188 31.5625 20.1625C31.7594 20.2008 32.0875 20.3156 32.3008 20.4195C32.5633 20.5453 32.793 20.7094 33.0391 20.9555C33.2578 21.1797 33.4602 21.4531 33.5695 21.6719C33.668 21.8688 33.7828 22.2023 33.832 22.4102C33.8758 22.6234 33.9141 22.8914 33.9141 23.0117C33.9141 23.132 33.8758 23.4055 33.832 23.6133C33.7828 23.8266 33.668 24.1547 33.5695 24.3516C33.4602 24.5758 33.2633 24.8383 33.0391 25.0625C32.8148 25.2867 32.5523 25.4836 32.3281 25.593C32.1313 25.6914 31.8031 25.8062 31.5898 25.8555C31.3766 25.8992 31.1086 25.9375 30.9883 25.9375C30.868 25.9375 30.6 25.8992 30.3867 25.8555C30.1734 25.8062 29.8453 25.6914 29.6484 25.593C29.4242 25.4836 29.1617 25.2867 28.9375 25.0625C28.7133 24.8383 28.5164 24.5758 28.407 24.3516C28.3086 24.1547 28.1938 23.8266 28.1445 23.6133C28.1008 23.4055 28.0625 23.132 28.0625 23.0117C28.0625 22.8914 28.1008 22.6234 28.1445 22.4102C28.1938 22.2023 28.3086 21.8688 28.407 21.6719C28.5164 21.4477 28.7133 21.1852 28.9375 20.9609C29.1562 20.7422 29.4297 20.5344 29.6484 20.425C29.8453 20.3266 30.1625 20.2117 30.3594 20.1734C30.5562 20.1297 30.8242 20.0914 30.9609 20.0914ZM30.0039 21.5789C29.8563 21.6828 29.6484 21.8852 29.55 22.0328C29.4516 22.1805 29.3422 22.3992 29.3094 22.5195C29.282 22.6398 29.2656 22.9242 29.2766 23.1484C29.2948 23.4219 29.3422 23.637 29.4187 23.7937C29.4844 23.9195 29.6539 24.1383 29.8016 24.275C29.9547 24.4227 30.1734 24.5648 30.3484 24.6305C30.518 24.6906 30.775 24.7344 30.9883 24.7344C31.2234 24.7344 31.4477 24.6961 31.6609 24.6141C31.8523 24.5375 32.0656 24.4008 32.2188 24.2422C32.3773 24.0836 32.5141 23.8758 32.5961 23.668C32.7 23.3945 32.7164 23.2633 32.7 22.9023C32.6836 22.5961 32.6398 22.3938 32.5578 22.2352C32.4922 22.1039 32.3391 21.9016 32.2188 21.7812C32.0984 21.6609 31.8961 21.5078 31.7703 21.4422C31.5953 21.3547 31.4148 21.3219 31.0703 21.3109C30.8133 21.3 30.5344 21.3164 30.4414 21.3438C30.3539 21.3711 30.157 21.475 30.0039 21.5789Z" fill="white" stroke="white" stroke-width="0.8"/>
</svg>
