<svg width="61" height="55" viewBox="0 0 61 55" fill="none" xmlns="http://www.w3.org/2000/svg">
<circle cx="37.2778" cy="23.7222" r="23.7222" fill="#5896E2" fill-opacity="0.3"/>
<circle cx="25.9815" cy="28.9938" r="23.7222" fill="#5896E2"/>
<path fill-rule="evenodd" clip-rule="evenodd" d="M27.9744 16.0006C28.8887 15.9956 29.3864 16.0206 30.0518 16.0956C30.5343 16.1506 31.1387 16.2307 31.3876 16.2757C31.6365 16.3207 32.0783 16.4107 32.3628 16.4757C32.6523 16.5407 33.1551 16.6807 33.4802 16.7908C33.8103 16.8958 34.3081 17.0908 34.5874 17.2158C34.8668 17.3459 35.2782 17.5709 35.5017 17.7159C35.7251 17.866 36.0553 18.141 36.2381 18.331C36.421 18.5211 36.6292 18.7861 36.7054 18.9211C36.7816 19.0612 36.8781 19.3062 36.9187 19.4712C36.9898 19.7363 37 20.6965 37 28.0228C37 36.0793 37 36.2843 36.9035 36.5994C36.8476 36.7794 36.7105 37.0595 36.6038 37.2245C36.4921 37.3895 36.2584 37.6596 36.0807 37.8196C35.9029 37.9846 35.6083 38.2097 35.4255 38.3297C35.2426 38.4447 34.9582 38.6047 34.7906 38.6848C34.623 38.7698 34.2776 38.9148 34.0287 39.0148C33.7798 39.1098 33.343 39.2599 33.0637 39.3399C32.7843 39.4199 32.2713 39.5499 31.9209 39.6199C31.5704 39.6899 30.9203 39.795 30.4733 39.85C29.8689 39.925 29.615 39.935 29.4829 39.9C29.3864 39.87 29.2543 39.815 29.1883 39.775C29.1274 39.735 29.0309 39.6099 28.975 39.4999C28.9191 39.3899 28.8734 39.2299 28.8734 39.1498C28.8734 39.0698 28.8988 38.9398 28.9293 38.8598C28.9598 38.7848 29.0309 38.6698 29.0918 38.6097C29.1528 38.5447 29.2594 38.4597 29.3305 38.4247C29.4016 38.3897 29.7877 38.3247 30.194 38.2747C30.6003 38.2297 31.2301 38.1297 31.5907 38.0496C31.9514 37.9746 32.444 37.8546 32.6828 37.7846C32.9215 37.7196 33.3075 37.5846 33.5462 37.4895C33.7849 37.3945 34.1506 37.2195 34.3589 37.0995C34.5671 36.9794 34.8414 36.7894 34.9633 36.6794C35.0852 36.5644 35.2274 36.3893 35.2782 36.2843C35.3493 36.1443 35.3747 35.9893 35.3747 35.6492C35.3747 35.4042 35.3594 35.2041 35.334 35.2141C35.3137 35.2191 35.0344 35.3542 34.7144 35.5092C34.3944 35.6692 33.8205 35.8993 33.4446 36.0193C33.0688 36.1393 32.4745 36.2993 32.124 36.3743C31.7736 36.4494 31.3977 36.5094 31.286 36.5094C31.1743 36.5094 31.0117 36.4694 30.9305 36.4243C30.8492 36.3793 30.7222 36.2593 30.6511 36.1593C30.5546 36.0243 30.5241 35.9193 30.5241 35.7192C30.5241 35.5292 30.5546 35.4142 30.6308 35.3141C30.6867 35.2391 30.8035 35.1291 30.8847 35.0741C30.966 35.0191 31.2809 34.9191 31.5907 34.8541C31.9006 34.789 32.4085 34.659 32.7183 34.569C33.0332 34.474 33.5157 34.304 33.7849 34.1839C34.0592 34.0639 34.4198 33.8789 34.5874 33.7639C34.755 33.6538 34.9785 33.4688 35.0801 33.3538C35.1868 33.2438 35.2934 33.0937 35.3239 33.0237C35.3544 32.9537 35.3747 32.6937 35.3747 32.4486C35.3747 32.2036 35.3594 32.0035 35.334 32.0135C35.3137 32.0185 35.0344 32.1536 34.7144 32.3086C34.3944 32.4686 33.8205 32.6987 33.4446 32.8187C33.0688 32.9387 32.4745 33.0987 32.124 33.1738C31.7736 33.2488 31.3977 33.3088 31.286 33.3088C31.1743 33.3088 31.0117 33.2688 30.9305 33.2238C30.8492 33.1788 30.7222 33.0587 30.6511 32.9587C30.5546 32.8237 30.5241 32.7187 30.5241 32.5186C30.5241 32.3286 30.5546 32.2136 30.6308 32.1136C30.6867 32.0385 30.8035 31.9285 30.8847 31.8735C30.966 31.8185 31.2809 31.7185 31.5907 31.6535C31.9006 31.5885 32.4085 31.4584 32.7183 31.3684C33.0332 31.2734 33.5157 31.1034 33.7849 30.9834C34.0592 30.8633 34.4198 30.6783 34.5874 30.5633C34.755 30.4533 34.9785 30.2682 35.0801 30.1532C35.1868 30.0432 35.2934 29.8932 35.3239 29.8231C35.3544 29.7531 35.3747 29.4931 35.3747 29.248C35.3747 29.003 35.3594 28.803 35.334 28.813C35.3137 28.818 35.0141 28.963 34.6636 29.133C34.2928 29.313 33.724 29.5331 33.2922 29.6631C32.8859 29.7881 32.2815 29.9432 31.9463 30.0132C31.6111 30.0832 31.2809 30.1282 31.2098 30.1132C31.1387 30.0982 31.0117 30.0582 30.9305 30.0132C30.8492 29.9732 30.7222 29.8581 30.6511 29.7581C30.5546 29.6231 30.5241 29.5181 30.5241 29.318C30.5241 29.128 30.5546 29.013 30.6308 28.913C30.6867 28.838 30.8035 28.7279 30.8847 28.6729C30.966 28.6179 31.2809 28.5179 31.5907 28.4529C31.8955 28.3879 32.4085 28.2579 32.7183 28.1678C33.0332 28.0728 33.5157 27.9028 33.7849 27.7828C34.0592 27.6627 34.4198 27.4777 34.5874 27.3627C34.755 27.2527 34.9785 27.0676 35.0801 26.9526C35.1868 26.8426 35.2934 26.6926 35.3239 26.6226C35.3544 26.5525 35.3747 26.2825 35.3747 25.5474L34.8007 25.8424C34.4757 26.0124 33.9068 26.2475 33.47 26.3925C33.0484 26.5275 32.4339 26.7026 32.0987 26.7726C31.7634 26.8476 31.1793 26.9526 30.8035 27.0076C30.4276 27.0626 29.9705 27.1076 29.7877 27.1126C29.5337 27.1226 29.4169 27.0976 29.2797 27.0176C29.1832 26.9626 29.0512 26.8276 28.9902 26.7176C28.9242 26.6126 28.8734 26.4475 28.8734 26.3575C28.8734 26.2725 28.8988 26.1375 28.9293 26.0575C28.9598 25.9824 29.0309 25.8674 29.0918 25.8074C29.1528 25.7424 29.2594 25.6574 29.3305 25.6224C29.4016 25.5874 29.7877 25.5224 30.194 25.4723C30.6003 25.4273 31.2301 25.3273 31.5907 25.2473C31.9514 25.1723 32.444 25.0523 32.6828 24.9823C32.9215 24.9172 33.3075 24.7822 33.5462 24.6872C33.7849 24.5922 34.1506 24.4172 34.3589 24.2971C34.5671 24.1771 34.8414 23.9871 34.9633 23.8771C35.0852 23.762 35.2274 23.587 35.2782 23.482C35.3493 23.342 35.3747 23.1869 35.3747 22.8469C35.3747 22.6018 35.3594 22.3968 35.334 22.3968C35.3137 22.3968 35.1614 22.4768 34.9937 22.5668C34.8261 22.6618 34.4604 22.8319 34.1811 22.9469C33.9017 23.0619 33.4091 23.2319 33.0891 23.322C32.7691 23.412 32.2307 23.542 31.8955 23.612C31.5603 23.682 31.0219 23.772 30.7019 23.817C30.3819 23.857 29.808 23.9171 29.4321 23.9471C29.0563 23.9721 28.4366 23.9971 28.0608 23.9971C27.6849 23.9971 27.0652 23.9721 26.6894 23.9471C26.3135 23.9171 25.7396 23.857 25.4196 23.817C25.0996 23.772 24.5612 23.682 24.226 23.612C23.8908 23.542 23.3524 23.412 23.0324 23.322C22.7124 23.2319 22.2198 23.0619 21.9404 22.9469C21.6611 22.8319 21.2954 22.6618 21.1278 22.5668C20.9601 22.4768 20.8078 22.3968 20.7824 22.3968C20.7621 22.3968 20.7417 22.6418 20.7316 22.9419C20.7214 23.397 20.7062 23.512 20.6198 23.627C20.564 23.697 20.4522 23.807 20.376 23.8671C20.2643 23.9471 20.1576 23.9721 19.9342 23.9721C19.7158 23.9721 19.5989 23.9471 19.4974 23.8721C19.4263 23.817 19.3145 23.707 19.2536 23.632C19.152 23.492 19.1469 23.437 19.1317 21.6566C19.1266 20.5514 19.1367 19.7213 19.1723 19.5713C19.1977 19.4362 19.2942 19.1762 19.3856 18.9962C19.4821 18.8111 19.6904 18.5261 19.8834 18.326C20.0662 18.141 20.3964 17.866 20.6198 17.7159C20.8433 17.5709 21.2547 17.3459 21.5341 17.2158C21.8134 17.0908 22.3112 16.8958 22.6363 16.7908C22.9664 16.6807 23.4692 16.5407 23.7537 16.4757C24.0432 16.4107 24.4952 16.3207 24.7593 16.2707C25.0234 16.2257 25.5821 16.1506 26.0037 16.1006C26.5167 16.0356 27.1618 16.0056 27.9693 16.0006H27.9744ZM25.4501 17.7759C25.1403 17.8159 24.673 17.901 24.4089 17.956C24.1448 18.011 23.6622 18.136 23.3423 18.231C23.0223 18.326 22.4839 18.5361 22.1487 18.6961C21.7423 18.8911 21.4376 19.0812 21.2395 19.2562C21.077 19.4012 20.8992 19.6063 20.8484 19.7113C20.7925 19.8113 20.7519 19.9413 20.7519 19.9963C20.7519 20.0514 20.7925 20.1814 20.8484 20.2864C20.8992 20.3864 21.077 20.5915 21.2395 20.7365C21.4376 20.9115 21.7423 21.1015 22.1487 21.2966C22.4839 21.4566 23.0223 21.6666 23.3423 21.7617C23.6622 21.8567 24.1448 21.9817 24.4089 22.0367C24.673 22.0917 25.1403 22.1767 25.4501 22.2168C25.7548 22.2618 26.3186 22.3168 26.6945 22.3468C27.0703 22.3718 27.69 22.3968 28.0658 22.3968C28.4417 22.3968 29.0613 22.3718 29.4372 22.3468C29.813 22.3168 30.3718 22.2618 30.6816 22.2168C30.9863 22.1767 31.4587 22.0917 31.7228 22.0367C31.9869 21.9817 32.4694 21.8567 32.7894 21.7617C33.1094 21.6666 33.6478 21.4566 33.983 21.2966C34.3893 21.1015 34.6941 20.9115 34.8922 20.7365C35.0547 20.5915 35.2325 20.3864 35.2833 20.2814C35.3391 20.1814 35.3798 20.0514 35.3798 19.9963C35.3798 19.9413 35.3391 19.8113 35.2833 19.7063C35.2325 19.6063 35.0547 19.4012 34.8922 19.2562C34.6941 19.0812 34.3893 18.8911 33.983 18.6961C33.6478 18.5361 33.1094 18.326 32.7894 18.231C32.4694 18.136 31.9869 18.011 31.7228 17.956C31.4587 17.901 30.9863 17.8159 30.6816 17.7759C30.3718 17.7309 29.813 17.6759 29.4372 17.6459C29.0613 17.6209 28.3858 17.6009 27.9389 17.6009C27.4919 17.6059 26.8722 17.6309 26.5675 17.6509C26.2577 17.6759 25.7548 17.7309 25.4501 17.7759ZM20.244 25.6224C20.9398 25.6324 21.7779 25.6774 22.1487 25.7224C22.5093 25.7624 23.0121 25.8324 23.2661 25.8774C23.5149 25.9224 23.9568 26.0124 24.2413 26.0775C24.5308 26.1425 25.0336 26.2825 25.3587 26.3925C25.6888 26.4975 26.1866 26.6926 26.4659 26.8176C26.7453 26.9476 27.1567 27.1727 27.3802 27.3177C27.6036 27.4677 27.9338 27.7428 28.1166 27.9328C28.2995 28.1228 28.5077 28.3879 28.5839 28.5229C28.6601 28.6629 28.7566 28.908 28.7972 29.073C28.8683 29.3331 28.8785 29.8481 28.8785 32.7987C28.8785 35.7492 28.8683 36.2643 28.7972 36.5244C28.7566 36.6894 28.6601 36.9344 28.5839 37.0745C28.5077 37.2095 28.2995 37.4745 28.1166 37.6646C27.9338 37.8546 27.6036 38.1297 27.3802 38.2797C27.1567 38.4247 26.7453 38.6498 26.4659 38.7798C26.1866 38.9048 25.6888 39.0998 25.3587 39.2049C25.0336 39.3149 24.5308 39.4549 24.2413 39.5199C23.9568 39.5849 23.5149 39.6749 23.2661 39.7199C23.0121 39.765 22.4128 39.845 21.9303 39.9C21.3106 39.97 20.7316 40 19.9392 40C19.1469 40 18.5679 39.97 17.9432 39.9C17.4657 39.845 16.8613 39.765 16.6124 39.7199C16.3585 39.6749 15.9217 39.5849 15.6322 39.5199C15.3477 39.4549 14.8449 39.3149 14.5147 39.2049C14.1897 39.0998 13.6919 38.9048 13.4126 38.7798C13.1332 38.6498 12.7218 38.4247 12.4983 38.2747C12.2749 38.1297 11.9549 37.8646 11.7822 37.6896C11.6146 37.5195 11.4165 37.2745 11.3403 37.1495C11.2692 37.0245 11.1625 36.7894 11.1016 36.6244C11 36.3343 11 36.2243 11 29.223L11.127 28.898C11.1981 28.7179 11.3251 28.4729 11.4063 28.3479C11.4876 28.2228 11.6958 27.9878 11.8736 27.8178C12.0514 27.6477 12.3663 27.4027 12.5745 27.2727C12.7828 27.1376 13.1739 26.9276 13.438 26.8076C13.7021 26.6826 14.1897 26.4975 14.5147 26.3925C14.8449 26.2825 15.3477 26.1425 15.6322 26.0775C15.9217 26.0124 16.4397 25.9074 16.7902 25.8524C17.1407 25.7974 17.674 25.7274 17.9838 25.6974C18.2885 25.6674 18.6441 25.6374 18.771 25.6274C18.898 25.6174 19.5583 25.6174 20.244 25.6224ZM17.3235 27.3777C17.0137 27.4177 16.5464 27.5027 16.2823 27.5577C16.0182 27.6127 15.5357 27.7378 15.2157 27.8328C14.8957 27.9278 14.3573 28.1378 14.0221 28.2979C13.6157 28.4929 13.311 28.6829 13.1129 28.858C12.9504 29.003 12.7726 29.208 12.7218 29.308C12.666 29.4131 12.6253 29.5431 12.6253 29.5981C12.6253 29.6531 12.666 29.7831 12.7218 29.8832C12.7726 29.9882 12.9504 30.1932 13.1129 30.3382C13.311 30.5133 13.6157 30.7033 14.0221 30.8983C14.3573 31.0584 14.8957 31.2684 15.2157 31.3634C15.5357 31.4584 16.0182 31.5835 16.2823 31.6385C16.5464 31.6935 17.0137 31.7785 17.3235 31.8185C17.6282 31.8635 18.192 31.9185 18.5679 31.9485C18.9437 31.9735 19.5634 31.9985 19.9392 31.9985C20.3151 31.9985 20.9348 31.9735 21.3106 31.9485C21.6865 31.9185 22.2452 31.8635 22.555 31.8185C22.8597 31.7785 23.3321 31.6935 23.5962 31.6385C23.8603 31.5835 24.3428 31.4584 24.6628 31.3634C24.9828 31.2684 25.5212 31.0584 25.8564 30.8983C26.2627 30.7033 26.5675 30.5133 26.7656 30.3382C26.9281 30.1932 27.1059 29.9882 27.1567 29.8832C27.2125 29.7831 27.2532 29.6531 27.2532 29.5981C27.2532 29.5431 27.2125 29.4131 27.1567 29.308C27.1059 29.208 26.9281 29.003 26.7656 28.858C26.5675 28.6829 26.2627 28.4929 25.8564 28.2979C25.5212 28.1378 24.9828 27.9278 24.6628 27.8328C24.3428 27.7378 23.8603 27.6127 23.5962 27.5577C23.3321 27.5027 22.8597 27.4177 22.555 27.3777C22.2452 27.3327 21.6865 27.2777 21.3106 27.2477C20.9348 27.2227 20.2592 27.2027 19.8123 27.2027C19.3653 27.2077 18.7457 27.2327 18.4409 27.2527C18.1311 27.2777 17.6282 27.3327 17.3235 27.3777ZM12.7218 33.0837C12.7726 33.1888 12.9504 33.3938 13.1129 33.5388C13.311 33.7139 13.6157 33.9039 14.0221 34.0989C14.3573 34.259 14.8957 34.469 15.2157 34.564C15.5357 34.659 16.0182 34.784 16.2823 34.8391C16.5464 34.8941 17.0137 34.9791 17.3235 35.0191C17.6282 35.0641 18.192 35.1191 18.5679 35.1491C18.9437 35.1741 19.5634 35.1991 19.9392 35.1991C20.3151 35.1991 20.9348 35.1741 21.3106 35.1491C21.6865 35.1191 22.2452 35.0641 22.555 35.0191C22.8597 34.9791 23.3321 34.8941 23.5962 34.8391C23.8603 34.784 24.3428 34.659 24.6628 34.564C24.9828 34.469 25.5212 34.259 25.8564 34.0989C26.2627 33.9039 26.5675 33.7139 26.7656 33.5388C26.9281 33.3938 27.1059 33.1888 27.1567 33.0837C27.2278 32.9437 27.2532 32.7887 27.2532 32.4486C27.2532 32.1986 27.2379 31.9985 27.2125 31.9985C27.1922 31.9985 27.0399 32.0786 26.8722 32.1686C26.7046 32.2636 26.3389 32.4336 26.0596 32.5486C25.7802 32.6637 25.2876 32.8337 24.9676 32.9237C24.6476 33.0137 24.1092 33.1437 23.774 33.2138C23.4388 33.2838 22.9004 33.3738 22.5804 33.4188C22.2604 33.4588 21.6865 33.5188 21.3106 33.5488C20.9348 33.5738 20.3151 33.5988 19.9392 33.5988C19.5634 33.5988 18.9437 33.5738 18.5679 33.5488C18.192 33.5188 17.6181 33.4588 17.2981 33.4188C16.9781 33.3738 16.4397 33.2838 16.1045 33.2138C15.7693 33.1437 15.2309 33.0137 14.9109 32.9237C14.5909 32.8337 14.0983 32.6637 13.8189 32.5486C13.5396 32.4336 13.1739 32.2636 13.0063 32.1686C12.8386 32.0786 12.6863 31.9985 12.6609 31.9985C12.6406 31.9985 12.6253 32.1986 12.6253 32.4486C12.6253 32.7887 12.6507 32.9437 12.7218 33.0837ZM12.7218 36.2843C12.7726 36.3893 12.9504 36.5944 13.1129 36.7394C13.311 36.9144 13.6157 37.1045 14.0221 37.2995C14.3573 37.4595 14.8957 37.6696 15.2157 37.7646C15.5357 37.8596 16.0182 37.9846 16.2823 38.0396C16.5464 38.0947 17.0137 38.1797 17.3235 38.2197C17.6282 38.2647 18.192 38.3197 18.5679 38.3497C18.9437 38.3747 19.5634 38.3997 19.9392 38.3997C20.3151 38.3997 20.9348 38.3747 21.3106 38.3497C21.6865 38.3197 22.2452 38.2647 22.555 38.2197C22.8597 38.1797 23.3321 38.0947 23.5962 38.0396C23.8603 37.9846 24.3428 37.8596 24.6628 37.7646C24.9828 37.6696 25.5212 37.4595 25.8564 37.2995C26.2627 37.1045 26.5675 36.9144 26.7656 36.7394C26.9281 36.5944 27.1059 36.3893 27.1567 36.2843C27.2278 36.1443 27.2532 35.9893 27.2532 35.6492C27.2532 35.3992 27.2379 35.1991 27.2125 35.1991C27.1922 35.1991 27.0399 35.2791 26.8722 35.3692C26.7046 35.4642 26.3389 35.6342 26.0596 35.7492C25.7802 35.8642 25.2876 36.0343 24.9676 36.1243C24.6476 36.2143 24.1092 36.3443 23.774 36.4143C23.4388 36.4844 22.9004 36.5744 22.5804 36.6194C22.2604 36.6594 21.6865 36.7194 21.3106 36.7494C20.9348 36.7744 20.3151 36.7994 19.9392 36.7994C19.5634 36.7994 18.9437 36.7744 18.5679 36.7494C18.192 36.7194 17.6181 36.6594 17.2981 36.6194C16.9781 36.5744 16.4397 36.4844 16.1045 36.4143C15.7693 36.3443 15.2309 36.2143 14.9109 36.1243C14.5909 36.0343 14.0983 35.8642 13.8189 35.7492C13.5396 35.6342 13.1739 35.4642 13.0063 35.3692C12.8386 35.2791 12.6863 35.1991 12.6609 35.1991C12.6406 35.1991 12.6253 35.3992 12.6253 35.6492C12.6253 35.9893 12.6507 36.1443 12.7218 36.2843Z" fill="white"/>
</svg>
