<svg width="16" height="16" viewBox="0 0 16 16" fill="none" xmlns="http://www.w3.org/2000/svg">
<path fill-rule="evenodd" clip-rule="evenodd" d="M14.5824 15.7098L10.9702 12.0977C8.15288 14.3181 4.09325 13.9581 1.71067 11.2765C-0.672008 8.595 -0.551876 4.5212 1.98466 1.98467C4.52109 -0.551863 8.59499 -0.671994 11.2765 1.71059C13.9581 4.09317 14.3181 8.15289 12.0977 10.9702L15.7098 14.5824C15.9441 14.7762 16.0483 15.0861 15.9788 15.3822C15.9094 15.6782 15.6782 15.9094 15.3821 15.9788C15.0861 16.0483 14.7762 15.9441 14.5824 15.7098ZM1.59269 6.77592C1.59269 8.85812 2.83985 10.7387 4.75862 11.5491C6.67749 12.3596 8.89507 11.9425 10.3884 10.4903C10.4036 10.4717 10.4195 10.4542 10.4361 10.4377C10.4529 10.4209 10.4705 10.4049 10.4889 10.3896C12.119 8.71492 12.4264 6.1565 11.2395 4.1433C10.0527 2.13011 7.66522 1.16026 5.41069 1.77558C3.15616 2.3908 1.5924 4.43899 1.59269 6.77592Z" fill="#989898"/>
</svg>
