<svg width="22" height="19" viewBox="0 0 22 19" fill="none" xmlns="http://www.w3.org/2000/svg">
<path fill-rule="evenodd" clip-rule="evenodd" d="M1.51989 8.21038C7.41718 5.50656 11.3592 3.75897 13.346 2.90166C18.9595 0.461629 20.1263 0.0329734 20.8832 0C21.0408 0 21.4193 0.0329736 21.6716 0.230814C21.8608 0.395681 21.9239 0.626495 21.9554 0.791362C21.9869 0.956229 22.0185 1.31894 21.9869 1.6157C21.6716 4.94601 20.3786 13.0904 19.6848 16.8164C19.401 18.3992 18.8333 18.9267 18.2972 18.9927C17.1303 19.0916 16.2158 18.1683 15.0805 17.41C13.3145 16.1899 12.3053 15.4316 10.5708 14.2445C8.58402 12.8596 9.87701 12.1012 11.0123 10.8812C11.2961 10.5515 16.4996 5.63845 16.5942 5.17682C16.5942 5.11088 16.6258 4.91304 16.4996 4.81412C16.3735 4.7152 16.2158 4.74817 16.0897 4.78114C15.9004 4.81412 13.0622 6.79252 7.54332 10.6834C6.72338 11.2769 5.99804 11.5407 5.33578 11.5407C4.61045 11.5407 3.22285 11.112 2.18215 10.7493C0.920703 10.3207 -0.0884581 10.0899 0.00615074 9.36445C0.0692233 9.00174 0.573803 8.60606 1.51989 8.21038Z" fill="#D0D0D0"/>
</svg>
