<svg width="21" height="21" viewBox="0 0 21 21" fill="none" xmlns="http://www.w3.org/2000/svg">
<path fill-rule="evenodd" clip-rule="evenodd" d="M17.9402 3.05161C15.9664 1.08473 13.3412 0.000997909 10.5441 0C4.78047 0 0.0897435 4.66772 0.087738 10.4052C0.0867353 12.2393 0.568543 14.0296 1.48353 15.6073L0 21L5.54304 19.553C7.07017 20.3823 8.78984 20.8189 10.5396 20.8194H10.5441C16.3067 20.8194 20.998 16.1511 21 10.4137C21.001 7.63303 19.9145 5.01899 17.9402 3.0521V3.05161ZM10.5441 19.0621H10.5406C8.98135 19.0616 7.45173 18.6444 6.11713 17.8566L5.79975 17.669L2.51032 18.5277L3.3882 15.3358L3.18163 15.0085C2.31177 13.6315 1.85202 12.0398 1.85303 10.4057C1.85503 5.63719 5.75361 1.75732 10.5477 1.75732C12.8689 1.75832 15.0509 2.65893 16.6918 4.29401C18.3328 5.92859 19.2357 8.10205 19.2347 10.4127C19.2327 15.1817 15.3341 19.0616 10.5441 19.0616V19.0621ZM15.311 12.5846C15.0498 12.4544 13.7654 11.8257 13.5257 11.7389C13.2861 11.6521 13.1121 11.6087 12.9381 11.8691C12.7642 12.1296 12.2633 12.7154 12.1109 12.8885C11.9585 13.0621 11.806 13.0836 11.5448 12.9533C11.2836 12.8231 10.4418 12.5487 9.44364 11.663C8.66705 10.9735 8.14258 10.1223 7.99021 9.86182C7.83778 9.60139 7.97417 9.46067 8.10448 9.33144C8.22179 9.2147 8.3657 9.02759 8.49654 8.8759C8.62744 8.72421 8.67055 8.61547 8.75776 8.4423C8.84503 8.26866 8.80139 8.11703 8.73623 7.98675C8.67102 7.85654 8.14864 6.57669 7.93053 6.0563C7.71843 5.54938 7.50289 5.61823 7.34294 5.60975C7.19052 5.60226 7.01657 5.60077 6.84209 5.60077C6.66762 5.60077 6.38482 5.66563 6.14518 5.92609C5.90555 6.18652 5.2307 6.8157 5.2307 8.09502C5.2307 9.37434 6.16677 10.6113 6.29761 10.7849C6.42845 10.9586 8.14007 13.5846 10.7607 14.7112C11.3839 14.9791 11.8707 15.1393 12.2502 15.259C12.876 15.4571 13.4455 15.4292 13.8957 15.3623C14.3976 15.2875 15.4414 14.7331 15.659 14.1259C15.8766 13.5187 15.8766 12.9977 15.8114 12.8895C15.7463 12.7812 15.5718 12.7158 15.3106 12.5856L15.311 12.5846Z" fill="#D0D0D0"/>
</svg>
